<?xml version="1.0" encoding="UTF-8" standalone="no"?>
<!-- Created with Inkscape (http://www.inkscape.org/) -->

<svg
   id="svg2"
   version="1.1"
   inkscape:version="1.4 (86a8ad7, 2024-10-11)"
   xml:space="preserve"
   width="1363.337"
   height="1363.1021"
   viewBox="0 0 1363.337 1363.1021"
   sodipodi:docname="initial_logo.svg"
   inkscape:export-filename="/home/eric/data/WORK/PROJECT/TOOL/SPARK/LOGO/spark.png"
   inkscape:export-xdpi="90"
   inkscape:export-ydpi="90"
   xmlns:inkscape="http://www.inkscape.org/namespaces/inkscape"
   xmlns:sodipodi="http://sodipodi.sourceforge.net/DTD/sodipodi-0.dtd"
   xmlns:xlink="http://www.w3.org/1999/xlink"
   xmlns="http://www.w3.org/2000/svg"
   xmlns:svg="http://www.w3.org/2000/svg"
   xmlns:rdf="http://www.w3.org/1999/02/22-rdf-syntax-ns#"
   xmlns:cc="http://creativecommons.org/ns#"
   xmlns:dc="http://purl.org/dc/elements/1.1/"><metadata
     id="metadata8"><rdf:RDF><cc:Work
         rdf:about=""><dc:format>image/svg+xml</dc:format><dc:type
           rdf:resource="http://purl.org/dc/dcmitype/StillImage" /></cc:Work></rdf:RDF></metadata><defs
     id="defs6"><linearGradient
       inkscape:collect="always"
       id="linearGradient4316"><stop
         style="stop-color:#ff9a20;stop-opacity:1"
         offset="0"
         id="stop4318" /><stop
         id="stop4324"
         offset="0.50968331"
         style="stop-color:#202020;stop-opacity:1" /><stop
         style="stop-color:#999999;stop-opacity:1"
         offset="1"
         id="stop4320" /></linearGradient><clipPath
       clipPathUnits="userSpaceOnUse"
       id="clipPath16"><path
         d="M 0,2400 H 2400 V 0 H 0 Z"
         id="path18"
         inkscape:connector-curvature="0" /></clipPath><clipPath
       clipPathUnits="userSpaceOnUse"
       id="clipPath34"><path
         d="M 0,2400 H 2400 V 0 H 0 Z"
         id="path36"
         inkscape:connector-curvature="0" /></clipPath><clipPath
       clipPathUnits="userSpaceOnUse"
       id="clipPath56"><path
         d="M 0,2400 H 2400 V 0 H 0 Z"
         id="path58"
         inkscape:connector-curvature="0" /></clipPath><clipPath
       clipPathUnits="userSpaceOnUse"
       id="clipPath74"><path
         d="M 0,2400 H 2400 V 0 H 0 Z"
         id="path76"
         inkscape:connector-curvature="0" /></clipPath><linearGradient
       inkscape:collect="always"
       xlink:href="#linearGradient4316"
       id="linearGradient4322"
       x1="2233.6833"
       y1="-2101.1331"
       x2="453.97421"
       y2="-2097.6116"
       gradientUnits="userSpaceOnUse" /><clipPath
       clipPathUnits="userSpaceOnUse"
       id="clipPath4209"><g
         style="fill:#ff0000;fill-opacity:1"
         clip-path="url(#clipPath16)"
         id="g4211"
         transform="matrix(2.0635153,0,0,-2.151038,-169.69721,2054.9341)"><g
           style="fill:#ff0000;fill-opacity:1"
           transform="translate(669.7393,1603.146)"
           id="g4213"><path
             inkscape:connector-curvature="0"
             id="path4215"
             style="fill:#ff0000;fill-opacity:1;fill-rule:nonzero;stroke:none"
             d="M 0,0 -19.792,9.871 3.162,14.913 24.615,4.216 Z M 493.46,260.286 C 433.151,169.83 293.361,115.006 183.714,97.188 157.418,27.065 116.201,-33.374 48.226,-54.819 l -5.551,40.711 22.673,7.817 18.465,-3.62 -11.752,30.224 H 36.8 l -7.558,15.952 h -79.756 l -20.045,-89.081 c -64.423,23.033 -103.965,81.971 -129.483,150.007 -109.646,17.815 -249.437,72.639 -309.746,163.099 -8.857,-26.08 -11.448,-51.575 -9.167,-76.248 41.26,-45.857 98.436,-82.05 151.715,-88.222 -41.881,-3.104 -88.583,2.159 -132.428,19.461 9.607,-20.508 22.254,-40.127 37.06,-58.685 41.245,-13.781 87.673,-19.858 151.563,-8.749 -35.551,-20.146 -75.05,-30.057 -113.213,-32.836 16.769,-15.938 34.828,-30.78 53.452,-44.357 27.841,-1.834 56.989,3.364 84.859,23.055 -9.817,-17.872 -24.788,-36.914 -46.407,-48.911 12.647,-7.832 25.3,-15.094 37.745,-21.67 5.89,-3.11 11.708,-6.243 17.526,-9.376 28.151,5.572 42.61,19.8 52.448,33.861 2.909,-17.432 -6.496,-37.015 -23.416,-49.77 102.27,-57.105 189.778,-117.024 239.887,-170.707 50.11,53.683 137.618,113.598 239.888,170.707 -16.92,12.755 -26.326,32.338 -23.417,49.766 9.839,-14.057 24.297,-28.288 52.449,-33.861 5.818,3.137 11.636,6.27 17.525,9.38 12.446,6.573 25.099,13.834 37.745,21.67 -21.618,11.997 -36.589,31.035 -46.406,48.911 27.87,-19.695 57.018,-24.892 84.859,-23.055 18.623,13.577 36.683,28.415 53.452,44.357 -38.163,2.779 -77.662,12.69 -113.213,32.836 63.889,-11.109 110.318,-5.035 151.563,8.749 14.805,18.558 27.451,38.177 37.059,58.681 -43.844,-17.302 -90.546,-22.565 -132.427,-19.461 53.278,6.176 110.455,42.365 151.715,88.226 2.279,24.669 -0.311,50.165 -9.168,76.244" /></g></g></clipPath></defs><sodipodi:namedview
     pagecolor="#ffffff"
     bordercolor="#666666"
     borderopacity="1"
     objecttolerance="10"
     gridtolerance="10"
     guidetolerance="10"
     inkscape:pageopacity="0"
     inkscape:pageshadow="2"
     inkscape:window-width="2017"
     inkscape:window-height="2104"
     id="namedview4"
     showgrid="false"
     inkscape:zoom="0.31466666"
     inkscape:cx="-659.42798"
     inkscape:cy="1301.3771"
     inkscape:window-x="1053"
     inkscape:window-y="241"
     inkscape:window-maximized="0"
     inkscape:current-layer="layer1"
     fit-margin-top="0"
     fit-margin-left="0"
     fit-margin-right="0"
     fit-margin-bottom="0"
     showguides="false"
     inkscape:pagecheckerboard="0"
     inkscape:showpageshadow="2"
     inkscape:deskcolor="#d1d1d1" /><g
     id="g10"
     inkscape:groupmode="layer"
     inkscape:label="eagle"
     transform="matrix(1.25,0,0,-1.25,1092.1455,3276.2263)"
     style="display:inline" /><g
     inkscape:groupmode="layer"
     id="layer1"
     inkscape:label="title"
     style="display:inline"
     transform="translate(1116.9341,468.8474)">


<g
   id="g862"
   transform="matrix(2.7266736,0,0,2.2718366,6487.0843,370.54081)"
   style="fill:#ffffff;fill-opacity:1;stroke:none"><path
     inkscape:connector-curvature="0"
     id="path891"
     d="m -2588.7527,-369.47561 50,100.00003 50,-100.00003 50.0001,100.00003 h 100 l -25,49.99998 h -100.0001 l -25,-49.99998 -25,49.99998 75.0001,150.000043 h -50.0001 l -100,-200.000023 -25,49.99998 h -50 l 25,50.00001 -25,50.00001 -75,-150 h 100"
     style="fill:#ffffff;fill-opacity:1;stroke:none;stroke-width:1px;stroke-linecap:butt;stroke-linejoin:miter;stroke-opacity:1" /><path
     inkscape:connector-curvature="0"
     id="path893"
     d="m -2563.7527,80.524443 h 50 l -75,149.999997 -50,-99.99999 h -100 l 50,-100.000027 h -100 l 50,-99.99998 -50,-100.000033 h 50 l 50,100.000033 -25,49.99997 h 50 l 75,-150.000003 25,50.00001 -100,200.000023 h 50 l 25,50.000007"
     style="fill:#ffffff;fill-opacity:1;stroke:none;stroke-width:1px;stroke-linecap:butt;stroke-linejoin:miter;stroke-opacity:1" /><path
     inkscape:connector-curvature="0"
     id="path895"
     d="m -2588.7527,30.524423 25,-50.00001 h 200.0001 l -25.0001,-49.99997 25.0001,-50.000023 h -50 l -25,-50.00001 h 150 l -50,100.000033 50,99.99998 h -100.0001 l 50.0001,100.000027 h -100 l -50.0001,99.99999 -25,-50.00001 50,-99.999987 h 50.0001 l -25,-50.00002"
     style="fill:#ffffff;fill-opacity:1;stroke:none;stroke-width:1px;stroke-linecap:butt;stroke-linejoin:miter;stroke-opacity:1" /></g></g></svg>
