<?xml version="1.0" encoding="UTF-8" standalone="no"?>
<svg
   version="1.0"
   width="511.489043pt"
   height="511.524748pt"
   viewBox="0 0 511.489043 511.524748"
   preserveAspectRatio="xMidYMid meet"
   id="svg8"
   sodipodi:docname="add.svg"
   inkscape:version="1.2.2 (732a01da63, 2022-12-09)"
   xmlns:inkscape="http://www.inkscape.org/namespaces/inkscape"
   xmlns:sodipodi="http://sodipodi.sourceforge.net/DTD/sodipodi-0.dtd"
   xmlns="http://www.w3.org/2000/svg"
   xmlns:svg="http://www.w3.org/2000/svg">
  <defs
     id="defs12" />
  <sodipodi:namedview
     id="namedview10"
     pagecolor="#ffffff"
     bordercolor="#999999"
     borderopacity="1"
     inkscape:showpageshadow="0"
     inkscape:pageopacity="0"
     inkscape:pagecheckerboard="0"
     inkscape:deskcolor="#d1d1d1"
     inkscape:document-units="pt"
     showgrid="false"
     inkscape:zoom="0.34602431"
     inkscape:cx="341.0165"
     inkscape:cy="341.0165"
     inkscape:window-width="3840"
     inkscape:window-height="2126"
     inkscape:window-x="-11"
     inkscape:window-y="-11"
     inkscape:window-maximized="1"
     inkscape:current-layer="svg8" />
  <metadata
     id="metadata2">
Created by potrace 1.12, written by Peter Selinger 2001-2015
</metadata>
  <g
     transform="translate(-0.257416,511.763585) scale(0.100000,-0.100000)"
     fill="#000000"
     stroke="none"
     id="g6"
     style="fill:#808080;fill-opacity:1">
    <path
       d="M2471 5109 c-183 -36 -334 -197 -361 -384 -6 -41 -10 -397 -10 -861 l0 -791 -26 -27 -27 -26 -791 0 c-464 0 -820 -4 -861 -10 -248 -35 -427 -275 -387 -517 33 -200 189 -354 387 -383 42 -6 384 -10 861 -10 l791 0 27 -26 26 -27 0 -791 c0 -464 4 -820 10 -861 35 -247 275 -427 516 -387 201 33 356 190 384 387 6 41 10 397 10 861 l0 791 26 27 27 26 791 0 c477 0 819 4 861 10 249 36 427 274 387 517 -33 200 -189 354 -387 383 -42 6 -384 10 -861 10 l-791 0 -27 26 -26 27 0 791 c0 477 -4 819 -10 861 -38 258 -285 434 -539 384z"
       id="path4"
       style="fill:#808080;fill-opacity:1" />
  </g>
</svg>
