<?xml version="1.0" encoding="UTF-8" standalone="no"?>
<!-- Created with Inkscape (http://www.inkscape.org/) -->

<svg
   width="69.136314mm"
   height="66.600143mm"
   viewBox="0 0 69.136316 66.600144"
   version="1.1"
   id="svg5"
   inkscape:version="1.2.2 (732a01da63, 2022-12-09)"
   sodipodi:docname="cookie_consent_open_button.svg"
   xml:space="preserve"
   xmlns:inkscape="http://www.inkscape.org/namespaces/inkscape"
   xmlns:sodipodi="http://sodipodi.sourceforge.net/DTD/sodipodi-0.dtd"
   xmlns="http://www.w3.org/2000/svg"
   xmlns:svg="http://www.w3.org/2000/svg"><sodipodi:namedview
     id="namedview7"
     pagecolor="#ffffff"
     bordercolor="#999999"
     borderopacity="1"
     inkscape:showpageshadow="0"
     inkscape:pageopacity="0"
     inkscape:pagecheckerboard="true"
     inkscape:deskcolor="#d1d1d1"
     inkscape:document-units="mm"
     showgrid="false"
     inkscape:zoom="2.3786088"
     inkscape:cx="97.956419"
     inkscape:cy="162.27973"
     inkscape:window-width="3840"
     inkscape:window-height="2126"
     inkscape:window-x="-11"
     inkscape:window-y="-11"
     inkscape:window-maximized="1"
     inkscape:current-layer="layer1" /><defs
     id="defs2" /><g
     inkscape:label="Calque 1"
     inkscape:groupmode="layer"
     id="layer1"
     transform="translate(-81.26213,-71.388795)"><path
       style="fill:#a9a9a9;fill-opacity:1;stroke:#ffffff;stroke-width:3;stroke-linecap:round;stroke-linejoin:round;stroke-dasharray:none;stroke-opacity:1"
       d="m 115.81366,72.888828 c -1.83683,0.0047 -3.37213,0.07924 -5.49293,0.439757 -5.78111,0.982738 -11.257421,3.782235 -16.011962,7.148837 -7.69655,5.449783 -11.936812,15.24726 -11.517987,24.641788 0.581212,7.35701 3.065874,14.70484 8.174827,20.17035 5.498916,6.35535 13.743112,9.80271 21.910412,11.05301 8.42438,0.80719 17.06858,-1.75994 23.65257,-7.09636 6.13681,-4.35278 10.26813,-11.06132 11.89231,-18.45786 0.84074,-3.82874 0.43659,-7.76842 -0.21688,-11.570019 -0.41466,-2.412307 -1.85338,-5.540967 -2.32185,-6.966312 -2.87904,0.80206 -6.58024,0.567703 -9.17119,-1.095398 -2.28709,-1.468057 -3.71816,-5.076082 -4.2502,-6.957698 -4.66174,1.358171 -7.47385,0.600489 -9.99462,-1.645793 -2.42417,-2.160184 -3.59222,-5.26217 -2.6755,-9.366336 0,0 -2.64762,-0.30136 -3.977,-0.297966 z"
       id="path391"
       sodipodi:nodetypes="assaaassacacaca" /><ellipse
       style="fill:none;fill-opacity:0.917647;stroke:#ffffff;stroke-width:2.5;stroke-linecap:round;stroke-linejoin:round;stroke-dasharray:none;stroke-opacity:1;paint-order:stroke fill markers"
       id="path490"
       cx="147.38184"
       cy="92.028046"
       rx="6.7574954"
       ry="6.4794092"
       transform="rotate(11.259195)" /><ellipse
       style="fill:none;fill-opacity:0.917647;stroke:#ffffff;stroke-width:2.5;stroke-linecap:round;stroke-linejoin:round;stroke-dasharray:none;stroke-opacity:1;paint-order:stroke fill markers"
       id="ellipse3447"
       cx="121.4642"
       cy="67.333977"
       rx="6.7574954"
       ry="6.4794092"
       transform="rotate(11.259195)" /><ellipse
       style="fill:none;fill-opacity:0.917647;stroke:#ffffff;stroke-width:2.5;stroke-linecap:round;stroke-linejoin:round;stroke-dasharray:none;stroke-opacity:1;paint-order:stroke fill markers"
       id="path3503"
       cx="141.18053"
       cy="73.118179"
       rx="3.2814174"
       ry="3.309226"
       transform="rotate(11.259195)" /><ellipse
       style="fill:#ffffff;fill-opacity:0.917647;stroke:none;stroke-width:2.60042;stroke-linecap:round;stroke-linejoin:round;stroke-dasharray:none;stroke-opacity:1;paint-order:stroke fill markers"
       id="ellipse4090"
       cx="129.05597"
       cy="83.907936"
       rx="3.2258"
       ry="3.2536087"
       transform="rotate(11.259195)" /><ellipse
       style="fill:#ffffff;fill-opacity:0.917647;stroke:none;stroke-width:2.60042;stroke-linecap:round;stroke-linejoin:round;stroke-dasharray:none;stroke-opacity:1;paint-order:stroke fill markers"
       id="ellipse4092"
       cx="156.47528"
       cy="76.677681"
       rx="3.2258"
       ry="3.2536087"
       transform="rotate(11.259195)" /><ellipse
       style="fill:none;fill-opacity:0.917647;stroke:#ffffff;stroke-width:2.5;stroke-linecap:round;stroke-linejoin:round;stroke-dasharray:none;stroke-opacity:1;paint-order:stroke fill markers"
       id="ellipse423"
       cx="130.27957"
       cy="101.14927"
       rx="3.2814174"
       ry="3.309226"
       transform="rotate(11.259195)" /><ellipse
       style="fill:#ffffff;fill-opacity:0.917647;stroke:none;stroke-width:2.60042;stroke-linecap:round;stroke-linejoin:round;stroke-dasharray:none;stroke-opacity:1;paint-order:stroke fill markers"
       id="ellipse425"
       cx="114.48425"
       cy="86.021393"
       rx="3.2258"
       ry="3.2536087"
       transform="rotate(11.259195)" /></g></svg>
