<?xml version="1.0" standalone="no"?>
<!DOCTYPE svg PUBLIC "-//W3C//DTD SVG 20010904//EN"
 "http://www.w3.org/TR/2001/REC-SVG-20010904/DTD/svg10.dtd">
<svg version="1.0" xmlns="http://www.w3.org/2000/svg"
 width="511.759877pt" height="511.894317pt" viewBox="0 0 511.759877 511.894317"
 preserveAspectRatio="xMidYMid meet">
<g transform="translate(-0.120062,511.978947) scale(0.100000,-0.100000)"
fill="#A0A0A0" stroke="none">
<path d="M2325 5109 c-474 -45 -925 -221 -1314 -512 -124 -92 -396 -364 -488
-488 -478 -639 -637 -1439 -438 -2196 48 -182 92 -299 180 -478 138 -281 260
-451 490 -680 88 -88 203 -193 256 -232 932 -696 2166 -696 3098 0 53 39 168
144 256 232 230 229 352 399 490 680 88 179 132 296 180 478 199 757 40 1557
-438 2196 -92 124 -364 396 -488 488 -520 388 -1158 571 -1784 512z m490 -853
c350 -54 623 -226 769 -484 132 -233 140 -532 21 -750 -66 -120 -137 -201
-340 -387 -110 -101 -244 -228 -297 -283 -115 -116 -141 -167 -182 -340 -29
-124 -45 -162 -85 -205 -61 -67 -172 -93 -272 -64 -109 32 -170 103 -189 219
-28 162 20 375 117 527 59 93 126 164 343 361 246 224 289 271 331 356 58 117
50 266 -20 375 -97 152 -273 231 -476 215 -258 -20 -378 -128 -501 -451 -52
-138 -65 -165 -106 -210 -67 -77 -191 -105 -299 -70 -72 24 -159 110 -182 179
-49 144 24 397 168 586 127 166 363 328 561 386 180 52 450 69 639 40z m-140
-2770 c138 -63 212 -209 185 -364 -20 -115 -78 -193 -179 -241 -48 -22 -69
-26 -151 -26 -82 0 -103 4 -151 26 -71 34 -125 87 -158 158 -37 81 -37 202 1
282 28 62 88 128 140 155 92 49 220 53 313 10z"/>
</g>
</svg>
