<?xml version="1.0" standalone="no"?>
<!DOCTYPE svg PUBLIC "-//W3C//DTD SVG 20010904//EN"
 "http://www.w3.org/TR/2001/REC-SVG-20010904/DTD/svg10.dtd">
<svg version="1.0" xmlns="http://www.w3.org/2000/svg"
 width="479.855069pt" height="479.866007pt" viewBox="0 0 479.855069 479.866007"
 preserveAspectRatio="xMidYMid meet">
<metadata>
Created by potrace 1.12, written by Peter Selinger 2001-2015
</metadata>
<g transform="translate(-16.074967,495.958336) scale(0.100000,-0.100000)"
fill="#000000" stroke="none">
<path d="M2325 4949 c-211 -20 -499 -94 -702 -181 -1136 -487 -1721 -1750
-1352 -2922 199 -633 632 -1138 1231 -1436 766 -381 1671 -322 2388 155 730
486 1140 1344 1059 2215 -42 460 -231 923 -526 1290 -154 193 -415 420 -622
543 -452 269 -959 384 -1476 336z m436 -319 c718 -73 1345 -508 1664 -1155
507 -1027 82 -2271 -950 -2780 -345 -171 -741 -243 -1116 -204 -720 73 -1345
507 -1664 1154 -285 577 -285 1253 0 1830 132 267 304 486 540 685 412 348
986 524 1526 470z"/>
<path d="M2470 3994 c-84 -11 -185 -35 -257 -63 -351 -136 -603 -488 -607
-848 -1 -88 2 -105 20 -130 72 -97 195 -98 267 -1 14 18 22 52 27 110 11 111
26 169 66 253 62 131 163 231 300 297 146 70 300 82 454 36 265 -80 460 -340
460 -613 0 -163 -69 -324 -189 -445 -70 -71 -88 -83 -234 -154 -132 -64 -167
-86 -216 -135 -63 -63 -108 -136 -137 -221 -16 -45 -19 -85 -19 -217 0 -177 3
-189 69 -237 39 -29 133 -29 172 0 63 46 69 64 74 217 6 160 14 183 79 239 21
18 74 48 118 65 43 18 107 50 143 70 93 54 254 217 318 322 187 307 187 685 0
992 -65 107 -225 267 -323 325 -91 53 -203 98 -290 118 -75 16 -236 27 -295
20z"/>
<path d="M2510 1433 c-68 -26 -115 -101 -107 -171 12 -110 127 -173 224 -123
117 59 121 214 8 278 -38 21 -92 28 -125 16z"/>
</g>
</svg>
