<?xml version="1.0" encoding="UTF-8" standalone="no"?>
<svg
   xmlns:dc="http://purl.org/dc/elements/1.1/"
   xmlns:cc="http://creativecommons.org/ns#"
   xmlns:rdf="http://www.w3.org/1999/02/22-rdf-syntax-ns#"
   xmlns:svg="http://www.w3.org/2000/svg"
   xmlns="http://www.w3.org/2000/svg"
   xmlns:sodipodi="http://sodipodi.sourceforge.net/DTD/sodipodi-0.dtd"
   xmlns:inkscape="http://www.inkscape.org/namespaces/inkscape"
   version="1.1"
   id="Capa_1"
   x="0px"
   y="0px"
   viewBox="0 0 247.99986 512.00037"
   xml:space="preserve"
   sodipodi:docname="up_arrow.svg"
   width="247.99986"
   height="512.00037"
   inkscape:version="1.0.1 (3bc2e813f5, 2020-09-07)"><metadata
   id="metadata43"><rdf:RDF><cc:Work
       rdf:about=""><dc:format>image/svg+xml</dc:format><dc:type
         rdf:resource="http://purl.org/dc/dcmitype/StillImage" /><dc:title></dc:title></cc:Work></rdf:RDF></metadata><defs
   id="defs41" /><sodipodi:namedview
   pagecolor="#ffffff"
   bordercolor="#666666"
   borderopacity="1"
   objecttolerance="10"
   gridtolerance="10"
   guidetolerance="10"
   inkscape:pageopacity="0"
   inkscape:pageshadow="2"
   inkscape:window-width="640"
   inkscape:window-height="480"
   id="namedview39"
   showgrid="false"
   fit-margin-top="0"
   fit-margin-left="0"
   fit-margin-right="0"
   fit-margin-bottom="0"
   inkscape:zoom="1.96875"
   inkscape:cx="123.99993"
   inkscape:cy="256.00038"
   inkscape:current-layer="Capa_1" />
<g
   id="g6"
   transform="translate(-132.00007,3.7936952e-4)">
	<g
   id="g4">
		<path
   d="m 374.176,110.386 -104,-104.504 c -0.006,-0.006 -0.013,-0.011 -0.019,-0.018 -7.818,-7.832 -20.522,-7.807 -28.314,0.002 -0.006,0.006 -0.013,0.011 -0.019,0.018 l -104,104.504 c -7.791,7.829 -7.762,20.493 0.068,28.285 7.829,7.792 20.492,7.762 28.284,-0.067 L 236,68.442 V 492 c 0,11.046 8.954,20 20,20 11.046,0 20,-8.954 20,-20 V 68.442 l 69.824,70.162 c 7.792,7.829 20.455,7.859 28.284,0.067 7.831,-7.793 7.858,-20.457 0.068,-28.285 z"
   id="path2" />
	</g>
</g>
<g
   id="g8"
   transform="translate(-132.00007,3.7936952e-4)">
</g>
<g
   id="g10"
   transform="translate(-132.00007,3.7936952e-4)">
</g>
<g
   id="g12"
   transform="translate(-132.00007,3.7936952e-4)">
</g>
<g
   id="g14"
   transform="translate(-132.00007,3.7936952e-4)">
</g>
<g
   id="g16"
   transform="translate(-132.00007,3.7936952e-4)">
</g>
<g
   id="g18"
   transform="translate(-132.00007,3.7936952e-4)">
</g>
<g
   id="g20"
   transform="translate(-132.00007,3.7936952e-4)">
</g>
<g
   id="g22"
   transform="translate(-132.00007,3.7936952e-4)">
</g>
<g
   id="g24"
   transform="translate(-132.00007,3.7936952e-4)">
</g>
<g
   id="g26"
   transform="translate(-132.00007,3.7936952e-4)">
</g>
<g
   id="g28"
   transform="translate(-132.00007,3.7936952e-4)">
</g>
<g
   id="g30"
   transform="translate(-132.00007,3.7936952e-4)">
</g>
<g
   id="g32"
   transform="translate(-132.00007,3.7936952e-4)">
</g>
<g
   id="g34"
   transform="translate(-132.00007,3.7936952e-4)">
</g>
<g
   id="g36"
   transform="translate(-132.00007,3.7936952e-4)">
</g>
</svg>
