<?xml version="1.0" encoding="UTF-8" standalone="no"?>
<!-- Generator: Adobe Illustrator 16.0.4, SVG Export Plug-In . SVG Version: 6.00 Build 0)  -->

<svg
   version="1.1"
   id="Layer_1"
   x="0px"
   y="0px"
   width="25"
   height="39.857861"
   viewBox="0 0 25 39.857861"
   xml:space="preserve"
   sodipodi:docname="blue_map_marker_icon.svg"
   inkscape:version="1.4 (86a8ad7, 2024-10-11)"
   xmlns:inkscape="http://www.inkscape.org/namespaces/inkscape"
   xmlns:sodipodi="http://sodipodi.sourceforge.net/DTD/sodipodi-0.dtd"
   xmlns="http://www.w3.org/2000/svg"
   xmlns:svg="http://www.w3.org/2000/svg"><defs
   id="defs1" /><sodipodi:namedview
   id="namedview1"
   pagecolor="#ffffff"
   bordercolor="#000000"
   borderopacity="0.25"
   inkscape:showpageshadow="2"
   inkscape:pageopacity="0.0"
   inkscape:pagecheckerboard="0"
   inkscape:deskcolor="#d1d1d1"
   inkscape:zoom="11.232143"
   inkscape:cx="-35.790143"
   inkscape:cy="36.190779"
   inkscape:window-width="3840"
   inkscape:window-height="2126"
   inkscape:window-x="-11"
   inkscape:window-y="-11"
   inkscape:window-maximized="1"
   inkscape:current-layer="Layer_1" />
<path
   fill-rule="evenodd"
   d="M 25,12.924 C 25,5.893 19.594,0 12.51,0 5.426,0 0,5.897 0,12.93 0,15.25 0.324,17 1.423,19 H 1.402 l 10.695,20.621 c 0.402,0.551 0.824,-0.032 0.824,-0.032 C 12.56,40.13 23.616,19 23.616,19 H 23.607 C 24.695,17 25,15.246 25,12.924 Z M 6.751,12.528 c 0,-3.317 2.579,-6.004 5.759,-6.004 3.179,0 5.76,2.687 5.76,6.004 0,3.317 -2.581,6.005 -5.76,6.005 -3.18,0 -5.759,-2.687 -5.759,-6.005 z"
   id="path1"
   style="fill:#6687da;fill-opacity:1" />
</svg>
