<?xml version="1.0" encoding="UTF-8" standalone="no"?>
<!-- Created with Inkscape (http://www.inkscape.org/) -->

<svg
   xmlns:dc="http://purl.org/dc/elements/1.1/"
   xmlns:cc="http://creativecommons.org/ns#"
   xmlns:rdf="http://www.w3.org/1999/02/22-rdf-syntax-ns#"
   xmlns:svg="http://www.w3.org/2000/svg"
   xmlns="http://www.w3.org/2000/svg"
   xmlns:xlink="http://www.w3.org/1999/xlink"
   xmlns:sodipodi="http://sodipodi.sourceforge.net/DTD/sodipodi-0.dtd"
   xmlns:inkscape="http://www.inkscape.org/namespaces/inkscape"
   id="svg2"
   version="1.1"
   inkscape:version="0.92.3 (2405546, 2018-03-11)"
   xml:space="preserve"
   width="1829.8556"
   height="2153.2271"
   viewBox="0 0 1829.8556 2153.2271"
   sodipodi:docname="spark.svg"
   inkscape:export-filename="/home/eric/data/WORK/PROJECT/TOOL/SPARK/LOGO/spark.png"
   inkscape:export-xdpi="90"
   inkscape:export-ydpi="90"><metadata
     id="metadata8"><rdf:RDF><cc:Work
         rdf:about=""><dc:format>image/svg+xml</dc:format><dc:type
           rdf:resource="http://purl.org/dc/dcmitype/StillImage" /><dc:title></dc:title></cc:Work></rdf:RDF></metadata><defs
     id="defs6"><linearGradient
       id="linearGradient4157"
       inkscape:collect="always"><stop
         id="stop4159"
         offset="0"
         style="stop-color:#ff2020;stop-opacity:1" /><stop
         id="stop4163"
         offset="1"
         style="stop-color:#ff9920;stop-opacity:1" /></linearGradient><linearGradient
       inkscape:collect="always"
       id="linearGradient4316"><stop
         style="stop-color:#ff9a20;stop-opacity:1"
         offset="0"
         id="stop4318" /><stop
         id="stop4324"
         offset="0.50968331"
         style="stop-color:#ff2020;stop-opacity:1" /><stop
         style="stop-color:#ff9920;stop-opacity:1"
         offset="1"
         id="stop4320" /></linearGradient><clipPath
       clipPathUnits="userSpaceOnUse"
       id="clipPath16"><path
         d="M 0,2400 H 2400 V 0 H 0 Z"
         id="path18"
         inkscape:connector-curvature="0" /></clipPath><clipPath
       clipPathUnits="userSpaceOnUse"
       id="clipPath34"><path
         d="M 0,2400 H 2400 V 0 H 0 Z"
         id="path36"
         inkscape:connector-curvature="0" /></clipPath><clipPath
       clipPathUnits="userSpaceOnUse"
       id="clipPath56"><path
         d="M 0,2400 H 2400 V 0 H 0 Z"
         id="path58"
         inkscape:connector-curvature="0" /></clipPath><clipPath
       clipPathUnits="userSpaceOnUse"
       id="clipPath74"><path
         d="M 0,2400 H 2400 V 0 H 0 Z"
         id="path76"
         inkscape:connector-curvature="0" /></clipPath><linearGradient
       inkscape:collect="always"
       xlink:href="#linearGradient4316"
       id="linearGradient4322"
       x1="2233.6833"
       y1="-2101.1331"
       x2="453.97421"
       y2="-2097.6116"
       gradientUnits="userSpaceOnUse" /><clipPath
       clipPathUnits="userSpaceOnUse"
       id="clipPath4209"><g
         style="fill:#ff0000;fill-opacity:1"
         clip-path="url(#clipPath16)"
         id="g4211"
         transform="matrix(2.0635153,0,0,-2.151038,-169.69721,2054.9341)"><g
           style="fill:#ff0000;fill-opacity:1"
           transform="translate(669.7393,1603.146)"
           id="g4213"><path
             inkscape:connector-curvature="0"
             id="path4215"
             style="fill:#ff0000;fill-opacity:1;fill-rule:nonzero;stroke:none"
             d="M 0,0 -19.792,9.871 3.162,14.913 24.615,4.216 Z M 493.46,260.286 C 433.151,169.83 293.361,115.006 183.714,97.188 157.418,27.065 116.201,-33.374 48.226,-54.819 l -5.551,40.711 22.673,7.817 18.465,-3.62 -11.752,30.224 H 36.8 l -7.558,15.952 h -79.756 l -20.045,-89.081 c -64.423,23.033 -103.965,81.971 -129.483,150.007 -109.646,17.815 -249.437,72.639 -309.746,163.099 -8.857,-26.08 -11.448,-51.575 -9.167,-76.248 41.26,-45.857 98.436,-82.05 151.715,-88.222 -41.881,-3.104 -88.583,2.159 -132.428,19.461 9.607,-20.508 22.254,-40.127 37.06,-58.685 41.245,-13.781 87.673,-19.858 151.563,-8.749 -35.551,-20.146 -75.05,-30.057 -113.213,-32.836 16.769,-15.938 34.828,-30.78 53.452,-44.357 27.841,-1.834 56.989,3.364 84.859,23.055 -9.817,-17.872 -24.788,-36.914 -46.407,-48.911 12.647,-7.832 25.3,-15.094 37.745,-21.67 5.89,-3.11 11.708,-6.243 17.526,-9.376 28.151,5.572 42.61,19.8 52.448,33.861 2.909,-17.432 -6.496,-37.015 -23.416,-49.77 102.27,-57.105 189.778,-117.024 239.887,-170.707 50.11,53.683 137.618,113.598 239.888,170.707 -16.92,12.755 -26.326,32.338 -23.417,49.766 9.839,-14.057 24.297,-28.288 52.449,-33.861 5.818,3.137 11.636,6.27 17.525,9.38 12.446,6.573 25.099,13.834 37.745,21.67 -21.618,11.997 -36.589,31.035 -46.406,48.911 27.87,-19.695 57.018,-24.892 84.859,-23.055 18.623,13.577 36.683,28.415 53.452,44.357 -38.163,2.779 -77.662,12.69 -113.213,32.836 63.889,-11.109 110.318,-5.035 151.563,8.749 14.805,18.558 27.451,38.177 37.059,58.681 -43.844,-17.302 -90.546,-22.565 -132.427,-19.461 53.278,6.176 110.455,42.365 151.715,88.226 2.279,24.669 -0.311,50.165 -9.168,76.244" /></g></g></clipPath><linearGradient
       inkscape:collect="always"
       xlink:href="#linearGradient4157"
       id="linearGradient874"
       x1="26.648926"
       y1="479.18613"
       x2="455.37378"
       y2="55.024052"
       gradientUnits="userSpaceOnUse" /><linearGradient
       inkscape:collect="always"
       xlink:href="#linearGradient4157"
       id="linearGradient876"
       gradientUnits="userSpaceOnUse"
       x1="26.648926"
       y1="479.18613"
       x2="455.37378"
       y2="55.024052" /><linearGradient
       inkscape:collect="always"
       xlink:href="#linearGradient4157"
       id="linearGradient878"
       gradientUnits="userSpaceOnUse"
       x1="26.648926"
       y1="479.18613"
       x2="455.37378"
       y2="55.024052" /><linearGradient
       inkscape:collect="always"
       xlink:href="#linearGradient4157"
       id="linearGradient880"
       gradientUnits="userSpaceOnUse"
       x1="26.648926"
       y1="479.18613"
       x2="455.37378"
       y2="55.024052" /><linearGradient
       inkscape:collect="always"
       xlink:href="#linearGradient4157"
       id="linearGradient882"
       gradientUnits="userSpaceOnUse"
       x1="26.648926"
       y1="479.18613"
       x2="455.37378"
       y2="55.024052" /><linearGradient
       inkscape:collect="always"
       xlink:href="#linearGradient4157"
       id="linearGradient884"
       gradientUnits="userSpaceOnUse"
       x1="26.648926"
       y1="479.18613"
       x2="455.37378"
       y2="55.024052" /><linearGradient
       inkscape:collect="always"
       xlink:href="#linearGradient4157"
       id="linearGradient886"
       gradientUnits="userSpaceOnUse"
       x1="26.648926"
       y1="479.18613"
       x2="455.37378"
       y2="55.024052" /></defs><sodipodi:namedview
     pagecolor="#ffffff"
     bordercolor="#666666"
     borderopacity="1"
     objecttolerance="10"
     gridtolerance="10"
     guidetolerance="10"
     inkscape:pageopacity="0"
     inkscape:pageshadow="2"
     inkscape:window-width="3840"
     inkscape:window-height="2136"
     id="namedview4"
     showgrid="false"
     inkscape:zoom="0.31466666"
     inkscape:cx="456.75489"
     inkscape:cy="384.9497"
     inkscape:window-x="0"
     inkscape:window-y="0"
     inkscape:window-maximized="1"
     inkscape:current-layer="layer1"
     fit-margin-top="100"
     fit-margin-left="100"
     fit-margin-right="100"
     fit-margin-bottom="100"
     showguides="false" /><g
     id="g10"
     inkscape:groupmode="layer"
     inkscape:label="eagle"
     transform="matrix(1.25,0,0,-1.25,1325.4047,3472.8781)"
     style="display:inline"><g
       id="g852"
       transform="matrix(2.2896589,0,0,-2.2896589,-914.5374,2698.3021)"
       style="fill:url(#linearGradient874);fill-opacity:1"><path
         id="path840"
         d="m 46.819,507.609 c 5.857,5.858 15.355,5.859 21.213,0 l 198.26,-198.26 3.123,26.186 c 0.727,6.09 5.088,11.125 11.013,12.713 5.911,1.584 12.212,-0.583 15.893,-5.503 l 50.099,-66.966 76.87,32.945 c 5.642,2.417 12.179,1.156 16.516,-3.18 4.337,-4.337 5.597,-10.878 3.181,-16.516 l -32.945,-76.87 66.967,-50.099 c 4.911,-3.674 7.091,-9.969 5.504,-15.893 -1.588,-5.925 -6.622,-10.286 -12.713,-11.012 l -83.044,-9.904 -9.904,-83.044 c -0.727,-6.091 -5.088,-11.125 -11.013,-12.713 -5.926,-1.588 -12.219,0.592 -15.893,5.503 l -50.099,66.966 -76.87,-32.945 c -5.641,-2.417 -12.18,-1.156 -16.516,3.181 -4.337,4.337 -5.597,10.878 -3.181,16.515 l 32.945,76.87 -66.967,50.099 c -4.911,3.674 -7.091,9.969 -5.504,15.893 1.588,5.925 6.622,10.286 12.713,11.012 L 202.653,245.71 4.392,443.97 c -5.854,5.853 -5.858,15.356 0,21.213 z M 263.646,182.534 c 5.546,-4.148 7.53,-11.554 4.802,-17.92 l -22.822,-53.251 53.251,22.822 c 6.364,2.728 13.771,0.744 17.92,-4.802 l 34.705,-46.39 6.861,57.528 c 0.82,6.876 6.241,12.298 13.118,13.118 l 57.526,6.861 -46.39,34.706 c -5.546,4.148 -7.53,11.554 -4.802,17.92 l 22.822,53.251 -53.251,-22.822 c -6.366,-2.729 -13.772,-0.744 -17.92,4.802 l -34.705,46.389 -6.86,-57.527 c -0.82,-6.877 -6.241,-12.298 -13.118,-13.118 l -57.527,-6.861 z m -23.089,67.697 18.953,2.26 2.26,18.953 L 57.425,475.79 36.211,454.577 Z"
         inkscape:connector-curvature="0"
         style="fill:url(#linearGradient876);fill-opacity:1" /><path
         id="path842"
         d="m 439.804,50.984 -21.213,21.213 c -5.858,5.858 -5.858,15.355 0,21.213 5.857,5.858 15.355,5.858 21.213,0 l 21.213,-21.213 c 5.858,-5.858 5.858,-15.355 0,-21.213 -5.857,-5.858 -15.355,-5.858 -21.213,0 z"
         inkscape:connector-curvature="0"
         style="fill:url(#linearGradient878);fill-opacity:1" /><path
         id="path844"
         d="m 272.662,0.514 c -8.002,2.144 -12.75,10.369 -10.606,18.371 l 7.765,28.978 c 2.138,7.98 10.349,12.757 18.371,10.606 8.003,-2.144 12.751,-10.369 10.607,-18.371 L 291.034,11.12 C 288.889,3.118 280.665,-1.628 272.662,0.514 Z"
         inkscape:connector-curvature="0"
         style="fill:url(#linearGradient880);fill-opacity:1" /><path
         id="path846"
         d="m 358.072,319.27 c -8.002,2.144 -12.75,10.369 -10.606,18.371 l 7.765,28.978 c 2.142,7.992 10.362,12.755 18.371,10.606 8.003,-2.144 12.751,-10.369 10.607,-18.371 l -7.765,-28.978 c -2.145,-8.002 -10.369,-12.749 -18.372,-10.606 z"
         inkscape:connector-curvature="0"
         style="fill:url(#linearGradient882);fill-opacity:1" /><path
         id="path848"
         d="m 153.147,127.794 c -7.991,-2.144 -16.227,2.604 -18.371,10.606 -2.144,8.002 2.605,16.227 10.607,18.371 l 28.978,7.764 c 8.021,2.15 16.232,-2.625 18.371,-10.607 2.144,-8.002 -2.605,-16.227 -10.607,-18.371 z"
         inkscape:connector-curvature="0"
         style="fill:url(#linearGradient884);fill-opacity:1" /><path
         id="path850"
         d="m 500.882,220.968 -28.978,-7.765 c -7.997,-2.143 -16.227,2.604 -18.372,10.606 -2.144,8.002 2.604,16.227 10.606,18.371 l 28.978,7.765 c 8.035,2.154 16.237,-2.638 18.372,-10.606 2.144,-8.002 -2.605,-16.227 -10.606,-18.371 z"
         inkscape:connector-curvature="0"
         style="fill:url(#linearGradient886);fill-opacity:1" /></g></g><g
     inkscape:groupmode="layer"
     id="layer1"
     inkscape:label="title"
     style="display:inline"
     transform="translate(1350.1933,665.49921)"><text
   transform="scale(0.9794445,1.0209869)"
   style="font-variant:normal;font-weight:normal;font-stretch:normal;font-size:18.45438766px;line-height:0%;font-family:Times;-inkscape-font-specification:Times-Roman;writing-mode:lr-tb;display:inline;fill:#ff4820;fill-opacity:1;fill-rule:nonzero;stroke:none;stroke-width:1.53786564;"
   id="text24"
   x="-1312.8431"
   y="1353.8868"
   inkscape:export-xdpi="90"
   inkscape:export-ydpi="90"><tspan
     x="-1312.8431"
     sodipodi:role="line"
     id="tspan28"
     y="1353.8868"
     style="font-size:544.3215332px;line-height:1.25;fill:#ff4820;fill-opacity:1;stroke-width:1.53786564;">SPARK</tspan></text>

</g></svg>