<?xml version="1.0" encoding="UTF-8" standalone="no"?>
<svg
   version="1.0"
   width="512.000000pt"
   height="511.954422pt"
   viewBox="0 0 512.000000 511.954422"
   preserveAspectRatio="xMidYMid meet"
   id="svg14"
   sodipodi:docname="block_category_icon.svg"
   inkscape:version="1.1 (c68e22c387, 2021-05-23)"
   xmlns:inkscape="http://www.inkscape.org/namespaces/inkscape"
   xmlns:sodipodi="http://sodipodi.sourceforge.net/DTD/sodipodi-0.dtd"
   xmlns="http://www.w3.org/2000/svg"
   xmlns:svg="http://www.w3.org/2000/svg">
  <defs
     id="defs18" />
  <sodipodi:namedview
     id="namedview16"
     pagecolor="#ffffff"
     bordercolor="#999999"
     borderopacity="1"
     inkscape:pageshadow="0"
     inkscape:pageopacity="0"
     inkscape:pagecheckerboard="0"
     inkscape:document-units="pt"
     showgrid="false"
     inkscape:zoom="1.1031255"
     inkscape:cx="341.75622"
     inkscape:cy="340.8497"
     inkscape:window-width="3840"
     inkscape:window-height="2126"
     inkscape:window-x="-11"
     inkscape:window-y="-11"
     inkscape:window-maximized="1"
     inkscape:current-layer="svg14" />
  <metadata
     id="metadata2">
Created by potrace 1.12, written by Peter Selinger 2001-2015
</metadata>
  <g
     transform="translate(0.000000,511.954422) scale(0.100000,-0.100000)"
     fill="#000000"
     stroke="none"
     id="g12"
     style="fill:#ffffff;fill-opacity:1">
    <path
       d="M452 5100 c-109 -29 -187 -74 -272 -160 -87 -86 -131 -163 -160 -276 -19 -73 -20 -113 -20 -724 0 -611 1 -651 20 -724 29 -113 73 -190 160 -276 86 -87 163 -131 276 -160 73 -19 113 -20 724 -20 611 0 651 1 724 20 113 29 190 73 276 160 87 86 131 163 160 276 19 73 20 113 20 724 0 611 -1 651 -20 724 -29 113 -73 190 -160 276 -86 87 -163 131 -276 160 -73 19 -112 20 -728 19 -608 0 -656 -1 -724 -19z m1415 -412 c22 -15 51 -44 64 -65 l24 -38 0 -645 0 -645 -24 -38 c-13 -21 -42 -50 -64 -65 l-41 -27 -645 0 -646 0 -38 24 c-21 13 -50 42 -65 64 l-27 41 -3 623 c-2 424 1 637 8 664 13 48 76 114 122 128 20 6 283 9 664 8 l630 -2 41 -27z"
       id="path4"
       style="fill:#ffffff;fill-opacity:1" />
    <path
       d="M3212 5100 c-109 -29 -187 -74 -272 -160 -87 -86 -131 -163 -160 -276 -19 -73 -20 -113 -20 -724 0 -611 1 -651 20 -724 29 -113 73 -190 160 -276 86 -87 163 -131 276 -160 73 -19 113 -20 724 -20 611 0 651 1 724 20 113 29 190 73 276 160 87 86 131 163 160 276 19 73 20 113 20 724 0 611 -1 651 -20 724 -29 113 -73 190 -160 276 -86 87 -163 131 -276 160 -73 19 -112 20 -728 19 -608 0 -656 -1 -724 -19z m1415 -412 c22 -15 51 -44 64 -65 l24 -38 0 -645 0 -645 -24 -38 c-13 -21 -42 -50 -64 -65 l-41 -27 -645 0 -646 0 -38 24 c-21 13 -50 42 -65 64 l-27 41 -3 623 c-2 424 1 637 8 664 13 48 76 114 122 128 20 6 283 9 664 8 l630 -2 41 -27z"
       id="path6"
       style="fill:#ffffff;fill-opacity:1" />
    <path
       d="M452 2340 c-109 -29 -187 -74 -272 -160 -87 -86 -131 -163 -160 -276 -19 -73 -20 -113 -20 -724 0 -611 1 -651 20 -724 29 -113 73 -190 160 -276 86 -87 163 -131 276 -160 73 -19 113 -20 724 -20 611 0 651 1 724 20 113 29 190 73 276 160 87 86 131 163 160 276 19 73 20 113 20 724 0 611 -1 651 -20 724 -29 113 -73 190 -160 276 -86 87 -163 131 -276 160 -73 19 -112 20 -728 19 -608 0 -656 -1 -724 -19z m1415 -412 c22 -15 51 -44 64 -65 l24 -38 0 -645 0 -645 -24 -38 c-13 -21 -42 -50 -64 -65 l-41 -27 -645 0 -646 0 -38 24 c-21 13 -50 42 -65 64 l-27 41 -3 623 c-2 424 1 637 8 664 13 48 76 114 122 128 20 6 283 9 664 8 l630 -2 41 -27z"
       id="path8"
       style="fill:#ffffff;fill-opacity:1" />
    <path
       d="M3212 2340 c-109 -29 -187 -74 -272 -160 -87 -86 -131 -163 -160 -276 -19 -73 -20 -113 -20 -724 0 -611 1 -651 20 -724 29 -113 73 -190 160 -276 86 -87 163 -131 276 -160 73 -19 113 -20 724 -20 611 0 651 1 724 20 113 29 190 73 276 160 87 86 131 163 160 276 19 73 20 113 20 724 0 611 -1 651 -20 724 -29 113 -73 190 -160 276 -86 87 -163 131 -276 160 -73 19 -112 20 -728 19 -608 0 -656 -1 -724 -19z m1415 -412 c22 -15 51 -44 64 -65 l24 -38 0 -645 0 -645 -24 -38 c-13 -21 -42 -50 -64 -65 l-41 -27 -645 0 -646 0 -38 24 c-21 13 -50 42 -65 64 l-27 41 -3 623 c-2 424 1 637 8 664 13 48 76 114 122 128 20 6 283 9 664 8 l630 -2 41 -27z"
       id="path10"
       style="fill:#ffffff;fill-opacity:1" />
  </g>
</svg>
