<?xml version="1.0" encoding="UTF-8" standalone="no"?>
<svg
   height="384.75pt"
   viewBox="0 -47 475.73829 384.75"
   width="474.75pt"
   version="1.1"
   id="svg6"
   sodipodi:docname="block_icon.svg"
   inkscape:version="1.1 (c68e22c387, 2021-05-23)"
   xmlns:inkscape="http://www.inkscape.org/namespaces/inkscape"
   xmlns:sodipodi="http://sodipodi.sourceforge.net/DTD/sodipodi-0.dtd"
   xmlns="http://www.w3.org/2000/svg"
   xmlns:svg="http://www.w3.org/2000/svg">
  <defs
     id="defs10" />
  <sodipodi:namedview
     id="namedview8"
     pagecolor="#ffffff"
     bordercolor="#999999"
     borderopacity="1"
     inkscape:pageshadow="0"
     inkscape:pageopacity="0"
     inkscape:pagecheckerboard="0"
     inkscape:document-units="pt"
     showgrid="false"
     inkscape:zoom="0.70403225"
     inkscape:cx="-90.904927"
     inkscape:cy="784.76519"
     inkscape:window-width="1706"
     inkscape:window-height="1111"
     inkscape:window-x="205"
     inkscape:window-y="231"
     inkscape:window-maximized="0"
     inkscape:current-layer="svg6"
     fit-margin-top="0"
     fit-margin-left="0"
     fit-margin-right="0"
     fit-margin-bottom="0" />
  <g
     id="g1596"
     style="stroke:#ffffff;stroke-opacity:1;fill:#ffffff;fill-opacity:1"
     transform="translate(0.62371447,2.2249832)">
    <path
       d="m 459.70756,290.50577 c 8.30175,0 15.03123,-6.72948 15.03123,-15.03123 V 10.88514 c 0,-33.15287 -26.97204,-60.1249 -60.12491,-60.1249 H 59.876966 c -33.15287,0 -60.12489998,26.97203 -60.12489998,60.1249 V 275.4347 c 0,33.15287 26.97202998,60.12491 60.12489998,60.12491 H 414.61388 c 33.15287,0 60.12491,-26.97204 60.12491,-60.12491 0,-8.30174 -6.72948,-15.03122 -15.03123,-15.03122 -8.30175,0 -15.03123,6.72948 -15.03123,15.03122 0,16.57644 -13.48601,30.06245 -30.06245,30.06245 H 59.876966 c -16.57643,0 -30.06245,-13.48601 -30.06245,-30.06245 V 10.88514 c 0,-16.5764299 13.48602,-30.06245 30.06245,-30.06245 H 414.61388 c 16.57644,0 30.06245,13.4860201 30.06245,30.06245 v 264.5894 c 0,8.30175 6.72948,15.03123 15.03123,15.03123 z"
       id="path876"
       style="stroke:#ffffff;stroke-width:0.751561;stroke-opacity:1;fill:#ffffff;fill-opacity:1"
       sodipodi:nodetypes="sssssssssssssssssssss" />
    <path
       d="m 404.38645,114.7607 c 0,-8.30173 -6.72948,-15.031203 -15.03122,-15.031203 H 80.46355 c -8.30175,0 -15.03123,6.729473 -15.03123,15.031203 0,8.30174 6.72948,15.03122 15.03123,15.03122 h 308.89168 c 8.30174,0 15.03122,-6.72948 15.03122,-15.03122 z"
       id="path878"
       style="stroke:#ffffff;stroke-width:0.751561;stroke-opacity:1;fill:#ffffff;fill-opacity:1"
       sodipodi:nodetypes="sssssss" />
    <path
       d="m 80.46355,159.85437 c -8.30175,0 -15.03123,6.72948 -15.03123,15.03122 0,8.30175 6.72948,15.03123 15.03123,15.03123 h 215.69808 c 8.30175,0 15.03123,-6.72948 15.03123,-15.03123 0,-8.30174 -6.72948,-15.03122 -15.03123,-15.03122 z"
       id="path880"
       style="stroke:#ffffff;stroke-width:0.751561;stroke-opacity:1;fill:#ffffff;fill-opacity:1"
       sodipodi:nodetypes="sssssss" />
    <path
       d="m 80.46355,69.667051 h 245.76053 c 8.30175,0 15.03123,-6.72948 15.03123,-15.031225 0,-8.301742 -6.72948,-15.031222 -15.03123,-15.031222 H 80.46355 c -8.30175,0 -15.03123,6.72948 -15.03123,15.031222 0,8.301745 6.72948,15.031225 15.03123,15.031225 z"
       id="path882"
       style="stroke:#ffffff;stroke-width:0.751561;stroke-opacity:1;fill:#ffffff;fill-opacity:1"
       sodipodi:nodetypes="sssssss" />
    <path
       d="m 404.38645,235.01053 c 0,-8.30175 -6.72948,-15.03123 -15.03122,-15.03123 H 80.46355 c -8.30175,0 -15.03123,6.72948 -15.03123,15.03123 0,8.30175 6.72948,15.03123 15.03123,15.03123 h 308.89168 c 8.30174,0 15.03122,-6.72948 15.03122,-15.03123 z"
       id="path1382"
       style="stroke:#ffffff;stroke-width:0.751561;stroke-opacity:1;fill:#ffffff;fill-opacity:1"
       sodipodi:nodetypes="sssssss" />
  </g>
</svg>
