<?xml version="1.0" encoding="UTF-8" standalone="no"?>
<svg
   height="384.75pt"
   viewBox="0 -47 475.73829 384.75"
   width="474.75pt"
   version="1.1"
   id="svg6"
   sodipodi:docname="block_type_icon.svg"
   inkscape:version="1.1 (c68e22c387, 2021-05-23)"
   xmlns:inkscape="http://www.inkscape.org/namespaces/inkscape"
   xmlns:sodipodi="http://sodipodi.sourceforge.net/DTD/sodipodi-0.dtd"
   xmlns="http://www.w3.org/2000/svg"
   xmlns:svg="http://www.w3.org/2000/svg">
  <defs
     id="defs10" />
  <sodipodi:namedview
     id="namedview8"
     pagecolor="#7d7d7d"
     bordercolor="#999999"
     borderopacity="1"
     inkscape:pageshadow="0"
     inkscape:pageopacity="0"
     inkscape:pagecheckerboard="true"
     inkscape:document-units="pt"
     showgrid="false"
     inkscape:zoom="0.70403225"
     inkscape:cx="251.40894"
     inkscape:cy="169.73654"
     inkscape:window-width="1706"
     inkscape:window-height="1111"
     inkscape:window-x="1535"
     inkscape:window-y="198"
     inkscape:window-maximized="0"
     inkscape:current-layer="svg6"
     fit-margin-top="0"
     fit-margin-left="0"
     fit-margin-right="0"
     fit-margin-bottom="0" />
  <path
     d="m 460.33127,292.72084 c 8.30175,0 15.03123,-6.72948 15.03123,-15.03123 V 13.100212 c 0,-33.15287 -26.97204,-60.1249 -60.12491,-60.1249 H 60.50068 c -33.15287,0 -60.12489951,26.97203 -60.12489951,60.1249 V 277.64977 c 0,33.15287 26.97202951,60.12491 60.12489951,60.12491 h 354.73691 c 33.15287,0 60.12491,-26.97204 60.12491,-60.12491 0,-8.30174 -6.72948,-15.03122 -15.03123,-15.03122 -8.30175,0 -15.03123,6.72948 -15.03123,15.03122 0,16.57644 -13.48601,30.06245 -30.06245,30.06245 H 60.50068 c -16.57643,0 -30.06245,-13.48601 -30.06245,-30.06245 V 13.100212 c 0,-16.5764291 13.48602,-30.06245 30.06245,-30.06245 h 354.73691 c 16.57644,0 30.06245,13.4860209 30.06245,30.06245 V 277.68961 c 0,8.30175 6.72948,15.03123 15.03123,15.03123 z"
     id="path876"
     style="fill:#ffffff;fill-opacity:1;stroke:#ffffff;stroke-width:0.751561;stroke-opacity:1"
     sodipodi:nodetypes="sssssssssssssssssssss" />
  <g
     id="g828"
     transform="matrix(1.1487732,0,0,1.1487732,-35.388233,-24.215143)">
    <path
       d="m 232.24909,59.241671 c -10.36135,1.039722 -18.67913,3.549393 -26.78178,8.102655 -12.83518,7.17049 -22.73046,19.611292 -25.74207,32.338912 -1.5058,6.310032 -1.5775,13.910752 -0.17925,16.814802 1.61336,3.29842 6.41759,3.6928 8.60459,0.6812 0.64533,-0.86046 0.71704,-1.57751 0.75289,-7.06294 0.0359,-7.13464 0.50194,-9.24993 3.37014,-15.058026 6.02321,-12.153981 17.71111,-20.901983 32.62572,-24.451376 3.04747,-0.717048 5.0552,-0.932163 10.43307,-1.075571 9.71601,-0.286822 16.77895,0.681194 24.45138,3.370131 13.2654,4.589112 22.40778,13.408815 25.92132,25.025011 0.89631,2.904051 1.00387,3.800361 1.00387,8.963111 0.0358,5.0552 -0.0717,6.05906 -0.78876,8.42533 -1.46995,4.69667 -3.11916,7.3856 -6.88367,11.15011 -4.33815,4.374 -7.20634,6.23832 -19.53958,12.69176 -11.32938,5.91566 -15.70338,8.6763 -19.683,12.40496 -4.62496,4.30229 -7.27805,8.64044 -8.89141,14.48438 -0.71705,2.68894 -0.78876,3.62111 -0.78876,16.13361 -0.0359,12.11813 0.0358,13.37297 0.6095,14.44854 1.93603,3.54939 7.09878,3.37013 8.92726,-0.28682 0.57364,-1.11143 0.64534,-2.54552 0.64534,-13.44467 0,-13.122 0.14341,-14.52025 1.93604,-18.03378 1.93603,-3.83621 5.77224,-7.56487 11.15011,-10.82744 1.39824,-0.86046 6.45344,-3.58525 11.29352,-6.09492 15.20144,-7.85169 20.54345,-11.72375 25.52694,-18.42816 6.52515,-8.748 8.60459,-20.90198 5.6647,-33.127666 -4.62497,-19.216915 -22.22852,-32.984258 -46.6082,-36.461945 -3.7645,-0.537785 -14.34097,-0.968015 -17.02991,-0.681198 z"
       id="path866"
       style="fill:#ffffff;fill-opacity:1;stroke:#ffffff;stroke-width:9.55877;stroke-miterlimit:4;stroke-dasharray:none;stroke-opacity:1" />
    <path
       d="m 231.42448,220.9626 c -4.48156,2.25871 -5.77224,8.35362 -2.54552,12.26154 1.61336,1.97189 3.6211,2.90405 6.23833,2.90405 7.92339,0 11.0067,-10.14624 4.4457,-14.6995 -2.07944,-1.43411 -5.8081,-1.64922 -8.13851,-0.46609 z"
       id="path868"
       style="fill:#ffffff;fill-opacity:1;stroke:#ffffff;stroke-width:9.55877;stroke-miterlimit:4;stroke-dasharray:none;stroke-opacity:1" />
  </g>
</svg>
