<?xml version="1.0" encoding="UTF-8" standalone="no"?>
<svg
   version="1.0"
   width="392.10504pt"
   height="521.93896pt"
   viewBox="0 0 392.10504 521.93897"
   preserveAspectRatio="xMidYMid meet"
   id="svg10"
   sodipodi:docname="content_block_manager_icon.svg"
   inkscape:version="1.1 (c68e22c387, 2021-05-23)"
   xmlns:inkscape="http://www.inkscape.org/namespaces/inkscape"
   xmlns:sodipodi="http://sodipodi.sourceforge.net/DTD/sodipodi-0.dtd"
   xmlns="http://www.w3.org/2000/svg"
   xmlns:svg="http://www.w3.org/2000/svg">
  <defs
     id="defs14" />
  <sodipodi:namedview
     id="namedview12"
     pagecolor="#838383"
     bordercolor="#999999"
     borderopacity="1"
     inkscape:pageshadow="0"
     inkscape:pageopacity="0"
     inkscape:pagecheckerboard="true"
     inkscape:document-units="pt"
     showgrid="false"
     inkscape:zoom="1.2790275"
     inkscape:cx="204.84313"
     inkscape:cy="697.40486"
     inkscape:window-width="3840"
     inkscape:window-height="2126"
     inkscape:window-x="-11"
     inkscape:window-y="-11"
     inkscape:window-maximized="1"
     inkscape:current-layer="svg10"
     fit-margin-top="0"
     fit-margin-left="0"
     fit-margin-right="0"
     fit-margin-bottom="0" />
  <metadata
     id="metadata2">
Created by potrace 1.12, written by Peter Selinger 2001-2015
</metadata>
  <g
     transform="matrix(0.1,0,0,-0.1,5.0050474,516.93632)"
     fill="#000000"
     stroke="none"
     id="g8"
     style="fill:#ffffff;fill-opacity:1;stroke:#ffffff;stroke-width:100;stroke-miterlimit:4;stroke-dasharray:none;stroke-opacity:1">
    <path
       d="M 413,5106 C 222,5060 60,4897 15,4709 2,4653 0,4385 0,2560 0,262 -4,412 62,286 110,196 209,101 300,58 341,38 399,17 428,11 465,3 912,0 1913,0 c 1573,0 1493,-3 1619,61 130,66 247,220 277,367 16,75 16,4189 0,4264 -30,147 -147,301 -277,367 -126,64 -44,61 -1627,60 -1126,-1 -1451,-3 -1492,-13 z m 2997,-227 c 79,-37 125,-81 162,-157 l 33,-67 V 2560 465 l -26,-55 c -37,-80 -81,-125 -157,-162 l -67,-33 H 1910 465 l -67,33 c -76,37 -120,82 -157,162 l -26,55 v 2095 2095 l 26,55 c 46,99 118,160 215,185 30,7 480,10 1471,10 l 1428,-1 z"
       id="path4"
       style="fill:#ffffff;fill-opacity:1;stroke:#ffffff;stroke-width:100;stroke-miterlimit:4;stroke-dasharray:none;stroke-opacity:1" />
    <path
       d="m 1065,3051 c -182,-6 -204,-8 -243,-29 -66,-35 -119,-88 -149,-150 l -28,-57 V 1845 875 l 25,-50 c 31,-64 91,-124 155,-155 l 50,-25 h 1035 1035 l 63,34 c 70,38 100,69 140,145 l 27,51 3,949 c 3,1050 5,1011 -61,1098 -37,49 -112,102 -165,118 -43,13 -1558,22 -1887,11 z m 1846,-227 c 59,-30 57,1 58,-978 1,-978 3,-946 -54,-976 -36,-19 -1974,-19 -2010,0 -57,30 -55,-2 -54,971 0,592 4,905 11,927 6,20 23,41 42,53 30,18 62,19 1004,19 864,0 976,-2 1003,-16 z"
       id="path6"
       style="fill:#ffffff;fill-opacity:1;stroke:#ffffff;stroke-width:100;stroke-miterlimit:4;stroke-dasharray:none;stroke-opacity:1" />
  </g>
  <g
     id="g1228"
     transform="matrix(4.5987399,0,0,4.5987399,122.86996,240.51586)">
    <path
       d="m 2,26.495 -2,9.5 9.5,-2 16.13,-16.13 -7.5,-7.5 z m 29.41,-14.41 c 0.78,-0.78 0.78,-2.05 0,-2.83 l -4.67,-4.67 c -0.78,-0.78 -2.05,-0.78 -2.83,0 l -3.66,3.66 7.5,7.5 z"
       id="path2"
       style="fill:#ffffff;fill-opacity:1"
       sodipodi:nodetypes="ccccccssssccs" />
  </g>
</svg>
