<?xml version="1.0" encoding="UTF-8" standalone="no"?>
<svg
   version="1.0"
   width="399.08359pt"
   height="399.08359pt"
   viewBox="0 0 399.08359 399.08359"
   preserveAspectRatio="xMidYMid meet"
   id="svg24"
   sodipodi:docname="grid_icon.svg"
   inkscape:version="1.1 (c68e22c387, 2021-05-23)"
   xmlns:inkscape="http://www.inkscape.org/namespaces/inkscape"
   xmlns:sodipodi="http://sodipodi.sourceforge.net/DTD/sodipodi-0.dtd"
   xmlns="http://www.w3.org/2000/svg"
   xmlns:svg="http://www.w3.org/2000/svg">
  <defs
     id="defs28" />
  <sodipodi:namedview
     id="namedview26"
     pagecolor="#ffffff"
     bordercolor="#999999"
     borderopacity="1"
     inkscape:pageshadow="0"
     inkscape:pageopacity="0"
     inkscape:pagecheckerboard="0"
     inkscape:document-units="pt"
     showgrid="false"
     inkscape:zoom="1.636875"
     inkscape:cx="265.75029"
     inkscape:cy="265.75029"
     inkscape:window-width="3840"
     inkscape:window-height="2126"
     inkscape:window-x="-11"
     inkscape:window-y="-11"
     inkscape:window-maximized="1"
     inkscape:current-layer="svg24"
     fit-margin-top="0"
     fit-margin-left="0"
     fit-margin-right="0"
     fit-margin-bottom="0" />
  <metadata
     id="metadata2">
Created by potrace 1.12, written by Peter Selinger 2001-2015
</metadata>
  <g
     transform="matrix(0.0997709,0,0,-0.0997709,-55.871704,454.9553)"
     fill="#000000"
     stroke="none"
     id="g22"
     style="fill:#9a9a9a;fill-opacity:1">
    <path
       d="m 585,4535 -25,-24 v -511 -511 l 25,-24 24,-25 h 511 511 l 24,25 25,24 v 511 511 l -25,24 -24,25 H 1120 609 Z m 935,-535 V 3600 H 1120 720 v 400 400 h 400 400 z"
       id="path4"
       style="fill:#9a9a9a;fill-opacity:1" />
    <path
       d="m 2025,4535 -25,-24 v -511 -511 l 25,-24 24,-25 h 511 511 l 24,25 25,24 v 511 511 l -25,24 -24,25 h -511 -511 z m 935,-535 v -400 h -400 -400 v 400 400 h 400 400 z"
       id="path6"
       style="fill:#9a9a9a;fill-opacity:1" />
    <path
       d="m 3465,4535 -25,-24 v -511 -511 l 25,-24 24,-25 h 511 511 l 24,25 25,24 v 511 511 l -25,24 -24,25 h -511 -511 z m 935,-535 v -400 h -400 -400 v 400 400 h 400 400 z"
       id="path8"
       style="fill:#9a9a9a;fill-opacity:1" />
    <path
       d="m 585,3095 -25,-24 v -511 -511 l 25,-24 24,-25 h 511 511 l 24,25 25,24 v 511 511 l -25,24 -24,25 H 1120 609 Z m 935,-535 V 2160 H 1120 720 v 400 400 h 400 400 z"
       id="path10"
       style="fill:#9a9a9a;fill-opacity:1" />
    <path
       d="m 2025,3095 -25,-24 v -511 -511 l 25,-24 24,-25 h 511 511 l 24,25 25,24 v 511 511 l -25,24 -24,25 h -511 -511 z m 935,-535 v -400 h -400 -400 v 400 400 h 400 400 z"
       id="path12"
       style="fill:#9a9a9a;fill-opacity:1" />
    <path
       d="m 3465,3095 -25,-24 v -511 -511 l 25,-24 24,-25 h 511 511 l 24,25 25,24 v 511 511 l -25,24 -24,25 h -511 -511 z m 935,-535 v -400 h -400 -400 v 400 400 h 400 400 z"
       id="path14"
       style="fill:#9a9a9a;fill-opacity:1" />
    <path
       d="m 585,1655 -25,-24 V 1120 609 l 25,-24 24,-25 h 511 511 l 24,25 25,24 v 511 511 l -25,24 -24,25 H 1120 609 Z m 935,-535 V 720 H 1120 720 v 400 400 h 400 400 z"
       id="path16"
       style="fill:#9a9a9a;fill-opacity:1" />
    <path
       d="m 2025,1655 -25,-24 V 1120 609 l 25,-24 24,-25 h 511 511 l 24,25 25,24 v 511 511 l -25,24 -24,25 h -511 -511 z m 935,-535 V 720 h -400 -400 v 400 400 h 400 400 z"
       id="path18"
       style="fill:#9a9a9a;fill-opacity:1" />
    <path
       d="m 3465,1655 -25,-24 V 1120 609 l 25,-24 24,-25 h 511 511 l 24,25 25,24 v 511 511 l -25,24 -24,25 h -511 -511 z m 935,-535 V 720 h -400 -400 v 400 400 h 400 400 z"
       id="path20"
       style="fill:#9a9a9a;fill-opacity:1" />
  </g>
</svg>
