<?xml version="1.0" encoding="UTF-8" standalone="no"?>
<svg
   version="1.0"
   width="497.833233pt"
   height="511.320536pt"
   viewBox="0 0 497.833233 511.320536"
   preserveAspectRatio="xMidYMid meet"
   id="svg16"
   sodipodi:docname="manage_icon.svg"
   inkscape:version="1.1 (c68e22c387, 2021-05-23)"
   xmlns:inkscape="http://www.inkscape.org/namespaces/inkscape"
   xmlns:sodipodi="http://sodipodi.sourceforge.net/DTD/sodipodi-0.dtd"
   xmlns="http://www.w3.org/2000/svg"
   xmlns:svg="http://www.w3.org/2000/svg">
  <defs
     id="defs20" />
  <sodipodi:namedview
     id="namedview18"
     pagecolor="#ffffff"
     bordercolor="#999999"
     borderopacity="1"
     inkscape:pageshadow="0"
     inkscape:pageopacity="0"
     inkscape:pagecheckerboard="0"
     inkscape:document-units="pt"
     showgrid="false"
     inkscape:zoom="1.280508"
     inkscape:cx="331.50906"
     inkscape:cy="340.88034"
     inkscape:window-width="2265"
     inkscape:window-height="1609"
     inkscape:window-x="438"
     inkscape:window-y="183"
     inkscape:window-maximized="0"
     inkscape:current-layer="svg16" />
  <metadata
     id="metadata2">
Created by potrace 1.12, written by Peter Selinger 2001-2015
</metadata>
  <g
     id="g1032"
     style="fill:#0000ff;fill-opacity:1;stroke:none">
    <path
       d="m 77.797214,2.62054 -3.4,3 -0.3,13.6 -0.4,13.6 h -20.6 c -25.3,0 -29.3,0.9 -39.1,8.8 -2.4,1.9 -5.9,5.9 -7.7,8.8 -6.9,10.7 -6.5,-4.9 -6.2,224.5 l 0.3,207.4 3.2,6.7 c 4,8.5 10.6,15.1 19.1,19.1 l 6.7,3.2 h 163.499996 163.5 l 6.5,-3.1 c 11.7,-5.5 19.6,-15.7 22,-28.4 1.2,-6.2 1.4,-145 0.2,-145 -0.4,0 -6.9,6.2 -14.5,13.8 l -13.7,13.7 v 57.3 57.4 l -2.9,2.9 -2.9,2.9 h -88.8 -88.7 l -9.6,3.2 c -13.6,4.4 -21.6,4.4 -30.1,0 l -6.3,-3.2 h -46.399996 -46.5 l -2.9,-2.9 -2.9,-2.9 v -204.5 -204.5 l 2.6,-3.1 2.6,-3.1 h 19.9 19.9 v 6.4 c 0,8.8 0.8,12.2 3.8,15.1 3.4,3.4 9,3.4 12.4,0 2.8,-2.7 3.8,-6.9 3.8,-15.8 v -5.7 h 27.499996 27.5 v 9.4 c 0,9.3 0,9.5 3.1,12 5.3,4.5 12.6,2.7 14.8,-3.6 0.6,-1.7 1.1,-6.4 1.1,-10.4 v -7.4 h 24 24 v 9.1 c 0,8.7 0.1,9.2 2.9,12 2,2 3.9,2.9 6.1,2.9 7.3,0 10,-4.3 10,-16 v -8 h 26.5 26.5 v 9.4 c 0,9.3 0,9.5 3.1,12 5.3,4.5 12.6,2.7 14.8,-3.6 0.6,-1.7 1.1,-6.4 1.1,-10.4 v -7.4 h 22.4 22.4 l 2.6,3.1 2.6,3.1 v 34.6 34.7 l 14.6,-14.5 14.5,-14.5 -0.3,-23 -0.3,-23 -3.1,-6.5 c -3.7,-7.9 -7.8,-12.8 -14.3,-16.9 -8.5,-5.5 -12.2,-6.1 -37.8,-6.1 h -23.3 v -12.1 c 0,-13.7 -1.3,-17.9 -6,-19.9 -3.6,-1.5 -8.2,-0.5 -10.6,2.2 -1.6,1.7 -2,4.2 -2.4,15.7 l -0.5,13.6 -26.2,0.3 -26.3,0.2 v -11.8 c 0,-6.6 -0.5,-13.3 -1.1,-15.1 -2.3,-6.4 -11.6,-7.9 -15.9,-2.4 -1.8,2.3 -2,4 -2,15.9 v 13.4 h -24 -24 v -12.1 c 0,-13.7 -1.3,-17.9 -6,-19.9 -3.6,-1.5 -8.2,-0.5 -10.6,2.2 -1.6,1.7 -2,4.2 -2.4,15.7 l -0.5,13.6 -27.1,0.3 -27.199996,0.2 -0.4,-13.5 c -0.3,-12.9 -0.5,-13.6 -2.9,-16 -1.4,-1.4 -4.1,-2.8 -6.1,-3.1 -3,-0.5 -4.1,-0.1 -6.9,2.4 z"
       id="path4"
       style="fill:#0000ff;stroke:none;stroke-width:0.1;fill-opacity:1" />
    <path
       d="m 421.89721,112.02054 c -1.9,0.5 -4.8,1.9 -6.5,3 -4,2.8 -32.5,31 -32.5,32.3 0,1.3 77.2,78.5 78.5,78.5 1.7,0 32.2,-31.2 33.9,-34.7 0.9,-1.8 1.9,-5.3 2.3,-7.8 1.2,-8.8 -0.1,-10.5 -31.4,-41.7 -24,-23.9 -29.5,-28.8 -32.8,-29.7 -4.7,-1.3 -6.8,-1.3 -11.5,0.1 z"
       id="path6"
       style="fill:#0000ff;stroke:none;stroke-width:0.1;fill-opacity:1" />
    <path
       d="m 88.397214,150.42054 c -3.6,3.9 -3,9.7 1.4,13.1 1.2,1 23.899996,1.2 98.399996,1.3 h 96.9 l 2.9,-2.9 c 3.1,-3.1 3.6,-5.9 1.7,-9.4 -2.5,-4.8 1.4,-4.6 -101.6,-4.7 H 90.797214 Z"
       id="path8"
       style="fill:#0000ff;stroke:none;stroke-width:0.1;fill-opacity:1" />
    <path
       d="m 300.39721,228.82054 -68,68 h -70.3 -70.399996 l -2.9,2.9 c -4.8,4.8 -3.6,11.1 2.6,13.7 2.8,1.2 13.899996,1.4 63.199996,1.4 h 59.7 l -19.1,19.2 -19,19.3 -2.6,8 c -18.1,56.3 -30.7,96.7 -30.7,98.7 0,3.1 2.9,5.8 6.3,5.8 3,0 100.8,-30.9 105.2,-33.3 1.7,-0.9 46,-44.6 98.5,-97.1 l 95.5,-95.6 -39.5,-39.5 c -21.7,-21.7 -39.7,-39.5 -40,-39.5 -0.3,0 -31.1,30.6 -68.5,68 z m 65,-36.5 c 5.5,5.4 8.9,1.6 -73.3,83.7 -69.1,69.2 -76,75.8 -79,75.8 -1.9,0 -4,-0.8 -5.2,-2 -4.9,-4.9 -7.4,-2.1 74.3,-83.8 56.4,-56.4 76.8,-76.2 78.5,-76.2 1.3,0 3.4,1.1 4.7,2.5 z m -131.9,231.2 c -0.2,0.2 -9.3,3.2 -20.2,6.7 l -19.9,6.4 -10.2,-10.1 c -5.7,-5.6 -10.3,-10.6 -10.3,-11.2 0,-0.5 2.8,-9.9 6.2,-20.8 l 6.2,-19.8 24.3,24.3 c 13.3,13.3 24.1,24.4 23.9,24.5 z"
       id="path10"
       style="fill:#0000ff;stroke:none;stroke-width:0.1;fill-opacity:1" />
    <path
       d="m 92.197214,218.92054 c -6.6,1.9 -8.3,9 -3.4,14 l 2.9,2.9 h 96.699996 96.7 l 2.9,-2.9 c 3.2,-3.3 3.6,-5.8 1.4,-10.1 -1,-2 -2.7,-3.2 -5.3,-3.9 -4.8,-1.4 -187.299996,-1.3 -191.899996,0 z"
       id="path12"
       style="fill:#0000ff;stroke:none;stroke-width:0.1;fill-opacity:1" />
    <path
       style="fill:#0000ff;stroke:none;stroke-width:0.75px;stroke-linecap:butt;stroke-linejoin:miter;stroke-opacity:1;fill-opacity:1"
       d="m 166.92595,416.43631 14.98034,-55.90742 64.09857,64.09856 -62.67917,22.85122 z"
       id="path875" />
    <path
       style="fill:#0000ff;stroke:none;stroke-width:0.75px;stroke-linecap:butt;stroke-linejoin:miter;stroke-opacity:1;fill-opacity:1"
       d="M 192.69697,349.08022 360.79433,179.81146 380.12259,200.31113 211.43953,366.65137 Z"
       id="path910" />
  </g>
</svg>
