<?xml version="1.0" encoding="UTF-8" standalone="no"?>
<svg
   version="1.0"
   width="431.10504pt"
   height="560.93634pt"
   viewBox="0 0 431.10504 560.93634"
   preserveAspectRatio="xMidYMid meet"
   id="svg8"
   sodipodi:docname="page_sub_page_icon.svg"
   inkscape:version="1.1 (c68e22c387, 2021-05-23)"
   xmlns:inkscape="http://www.inkscape.org/namespaces/inkscape"
   xmlns:sodipodi="http://sodipodi.sourceforge.net/DTD/sodipodi-0.dtd"
   xmlns="http://www.w3.org/2000/svg"
   xmlns:svg="http://www.w3.org/2000/svg">
  <defs
     id="defs12" />
  <sodipodi:namedview
     id="namedview10"
     pagecolor="#8a8a8a"
     bordercolor="#999999"
     borderopacity="1"
     inkscape:pageshadow="0"
     inkscape:pageopacity="0"
     inkscape:pagecheckerboard="true"
     inkscape:document-units="pt"
     showgrid="false"
     inkscape:zoom="1.1884831"
     inkscape:cx="73.202555"
     inkscape:cy="424.06998"
     inkscape:window-width="3840"
     inkscape:window-height="2126"
     inkscape:window-x="-11"
     inkscape:window-y="-11"
     inkscape:window-maximized="1"
     inkscape:current-layer="svg8"
     fit-margin-top="0"
     fit-margin-left="0"
     fit-margin-right="0"
     fit-margin-bottom="0" />
  <metadata
     id="metadata2">
Created by potrace 1.12, written by Peter Selinger 2001-2015
</metadata>
  <g
     transform="matrix(0.1,0,0,-0.1,-20.994953,577.93632)"
     fill="#000000"
     stroke="none"
     id="g6"
     style="fill:#ffffff;fill-opacity:1;stroke:#ffffff;stroke-width:100;stroke-miterlimit:4;stroke-dasharray:none;stroke-opacity:1">
    <path
       d="M 1063,5716 C 894,5675 753,5551 685,5383 663,5330 659,5326 598,5300 474,5248 383,5166 322,5053 256,4929 260,5077 260,2780 260,482 256,632 322,506 370,416 469,321 560,278 c 41,-20 99,-41 128,-47 37,-8 484,-11 1485,-11 1227,0 1441,2 1495,15 169,40 302,155 373,324 23,55 33,67 61,77 133,46 252,151 310,274 20,41 41,99 47,128 16,75 16,4189 0,4264 -30,147 -147,301 -277,367 -126,64 -44,61 -1627,60 -1126,-1 -1451,-3 -1492,-13 z m 2997,-227 c 79,-37 125,-81 162,-157 l 33,-67 V 3170 1075 l -26,-55 c -30,-64 -74,-117 -118,-143 l -31,-18 v 2000 c 0,1412 -3,2016 -11,2053 -38,185 -185,346 -374,409 -32,11 -299,15 -1419,19 l -1379,5 35,45 c 39,52 123,106 182,118 22,4 682,7 1466,7 l 1425,-1 z m -390,-390 c 79,-37 125,-81 162,-157 l 33,-67 V 2780 685 l -26,-55 c -37,-80 -81,-125 -157,-162 l -67,-33 H 2170 725 l -67,33 c -76,37 -120,82 -157,162 l -26,55 v 2095 2095 l 26,55 c 46,99 118,160 215,185 30,7 480,10 1471,10 l 1428,-1 z"
       id="path4"
       style="fill:#ffffff;fill-opacity:1;stroke:#ffffff;stroke-width:100;stroke-miterlimit:4;stroke-dasharray:none;stroke-opacity:1" />
  </g>
  <path
     d="m 88.655284,146.28566 c -7.269652,0 -13.162497,6.38666 -13.162497,14.2655 0,7.87883 5.892845,14.2655 13.162497,14.2655 H 277.53691 c 7.26965,0 13.16248,-6.38667 13.16248,-14.2655 0,-7.87884 -5.89283,-14.2655 -13.16248,-14.2655 z"
     id="path880"
     style="fill:#ffffff;fill-opacity:1;stroke:#ffffff;stroke-width:0.685145;stroke-opacity:1"
     sodipodi:nodetypes="sssssss" />
  <path
     d="m 88.655284,203.38066 c -7.269652,0 -13.162497,6.38667 -13.162497,14.26551 0,7.87882 5.892845,14.26549 13.162497,14.26549 H 303.86189 c 7.26963,0 13.16248,-6.38667 13.16248,-14.26549 0,-7.87884 -5.89285,-14.26551 -13.16248,-14.26551 z"
     id="path852"
     style="fill:#ffffff;fill-opacity:1;stroke:#ffffff;stroke-width:0.685145;stroke-opacity:1"
     sodipodi:nodetypes="sssssss" />
  <path
     d="m 88.655284,260.40965 c -7.269652,0 -13.162497,6.38666 -13.162497,14.2655 0,7.87883 5.892845,14.26549 13.162497,14.26549 H 277.53691 c 7.26965,0 13.16248,-6.38666 13.16248,-14.26549 0,-7.87884 -5.89283,-14.2655 -13.16248,-14.2655 z"
     id="path993"
     style="fill:#ffffff;fill-opacity:1;stroke:#ffffff;stroke-width:0.685145;stroke-opacity:1"
     sodipodi:nodetypes="sssssss" />
  <path
     d="m 88.655284,317.50466 c -7.269652,0 -13.162497,6.38665 -13.162497,14.26549 0,7.87884 5.892845,14.2655 13.162497,14.2655 H 303.86189 c 7.26963,0 13.16248,-6.38666 13.16248,-14.2655 0,-7.87884 -5.89285,-14.26549 -13.16248,-14.26549 z"
     id="path995"
     style="fill:#ffffff;fill-opacity:1;stroke:#ffffff;stroke-width:0.685145;stroke-opacity:1"
     sodipodi:nodetypes="sssssss" />
  <path
     d="m 88.655284,374.53364 c -7.269652,0 -13.162497,6.38666 -13.162497,14.26549 0,7.87884 5.892845,14.26551 13.162497,14.26551 H 277.53691 c 7.26965,0 13.16248,-6.38667 13.16248,-14.26551 0,-7.87883 -5.89283,-14.26549 -13.16248,-14.26549 z"
     id="path997"
     style="fill:#ffffff;fill-opacity:1;stroke:#ffffff;stroke-width:0.685145;stroke-opacity:1"
     sodipodi:nodetypes="sssssss" />
  <path
     d="m 88.655284,431.62864 c -7.269652,0 -13.162497,6.38667 -13.162497,14.2655 0,7.87884 5.892845,14.2655 13.162497,14.2655 H 303.86189 c 7.26963,0 13.16248,-6.38666 13.16248,-14.2655 0,-7.87883 -5.89285,-14.2655 -13.16248,-14.2655 z"
     id="path999"
     style="fill:#ffffff;fill-opacity:1;stroke:#ffffff;stroke-width:0.685145;stroke-opacity:1"
     sodipodi:nodetypes="sssssss" />
</svg>
