<?xml version="1.0" encoding="UTF-8" standalone="no"?>
<svg
   version="1.0"
   width="392.10504pt"
   height="521.93896pt"
   viewBox="0 0 392.10504 521.93897"
   preserveAspectRatio="xMidYMid meet"
   id="svg8"
   sodipodi:docname="page_icon.svg"
   inkscape:version="1.1 (c68e22c387, 2021-05-23)"
   xmlns:inkscape="http://www.inkscape.org/namespaces/inkscape"
   xmlns:sodipodi="http://sodipodi.sourceforge.net/DTD/sodipodi-0.dtd"
   xmlns="http://www.w3.org/2000/svg"
   xmlns:svg="http://www.w3.org/2000/svg">
  <defs
     id="defs12" />
  <sodipodi:namedview
     id="namedview10"
     pagecolor="#bebebe"
     bordercolor="#999999"
     borderopacity="1"
     inkscape:pageshadow="0"
     inkscape:pageopacity="0"
     inkscape:pagecheckerboard="true"
     inkscape:document-units="pt"
     showgrid="false"
     inkscape:zoom="0.90440902"
     inkscape:cx="180.22819"
     inkscape:cy="327.83839"
     inkscape:window-width="2038"
     inkscape:window-height="1701"
     inkscape:window-x="1592"
     inkscape:window-y="182"
     inkscape:window-maximized="0"
     inkscape:current-layer="svg8"
     fit-margin-top="0"
     fit-margin-left="0"
     fit-margin-right="0"
     fit-margin-bottom="0" />
  <metadata
     id="metadata2">
Created by potrace 1.12, written by Peter Selinger 2001-2015
</metadata>
  <g
     transform="matrix(0.1,0,0,-0.1,5.0050474,516.93632)"
     fill="#000000"
     stroke="none"
     id="g6"
     style="fill:#ffffff;fill-opacity:1;stroke:#ffffff;stroke-width:100;stroke-miterlimit:4;stroke-dasharray:none;stroke-opacity:1">
    <path
       d="M 413,5106 C 222,5060 60,4897 15,4709 2,4653 0,4385 0,2560 0,262 -4,412 62,286 110,196 209,101 300,58 341,38 399,17 428,11 465,3 912,0 1913,0 c 1573,0 1493,-3 1619,61 130,66 247,220 277,367 16,75 16,4189 0,4264 -30,147 -147,301 -277,367 -126,64 -44,61 -1627,60 -1126,-1 -1451,-3 -1492,-13 z m 2997,-227 c 79,-37 125,-81 162,-157 l 33,-67 V 2560 465 l -26,-55 c -37,-80 -81,-125 -157,-162 l -67,-33 H 1910 465 l -67,33 c -76,37 -120,82 -157,162 l -26,55 v 2095 2095 l 26,55 c 46,99 118,160 215,185 30,7 480,10 1471,10 l 1428,-1 z"
       id="path4"
       style="fill:#ffffff;fill-opacity:1;stroke:#ffffff;stroke-width:100;stroke-miterlimit:4;stroke-dasharray:none;stroke-opacity:1" />
  </g>
  <path
     d="m 89.385065,103.79367 c -7.269652,0 -13.162497,6.38666 -13.162497,14.2655 0,7.87883 5.892845,14.2655 13.162497,14.2655 H 278.26669 c 7.26965,0 13.16248,-6.38667 13.16248,-14.2655 0,-7.87884 -5.89283,-14.2655 -13.16248,-14.2655 z"
     id="path880"
     style="fill:#ffffff;fill-opacity:1;stroke:#ffffff;stroke-width:0.685145;stroke-opacity:1"
     sodipodi:nodetypes="sssssss" />
  <path
     d="m 89.385065,160.88867 c -7.269652,0 -13.162497,6.38667 -13.162497,14.26551 0,7.87882 5.892845,14.26549 13.162497,14.26549 H 304.59167 c 7.26963,0 13.16248,-6.38667 13.16248,-14.26549 0,-7.87884 -5.89285,-14.26551 -13.16248,-14.26551 z"
     id="path852"
     style="fill:#ffffff;fill-opacity:1;stroke:#ffffff;stroke-width:0.685145;stroke-opacity:1"
     sodipodi:nodetypes="sssssss" />
  <path
     d="m 89.385065,217.91766 c -7.269652,0 -13.162497,6.38666 -13.162497,14.2655 0,7.87883 5.892845,14.26549 13.162497,14.26549 H 278.26669 c 7.26965,0 13.16248,-6.38666 13.16248,-14.26549 0,-7.87884 -5.89283,-14.2655 -13.16248,-14.2655 z"
     id="path993"
     style="fill:#ffffff;fill-opacity:1;stroke:#ffffff;stroke-width:0.685145;stroke-opacity:1"
     sodipodi:nodetypes="sssssss" />
  <path
     d="m 89.385065,275.01267 c -7.269652,0 -13.162497,6.38665 -13.162497,14.26549 0,7.87884 5.892845,14.2655 13.162497,14.2655 H 304.59167 c 7.26963,0 13.16248,-6.38666 13.16248,-14.2655 0,-7.87884 -5.89285,-14.26549 -13.16248,-14.26549 z"
     id="path995"
     style="fill:#ffffff;fill-opacity:1;stroke:#ffffff;stroke-width:0.685145;stroke-opacity:1"
     sodipodi:nodetypes="sssssss" />
  <path
     d="m 89.385065,332.04165 c -7.269652,0 -13.162497,6.38666 -13.162497,14.26549 0,7.87884 5.892845,14.26551 13.162497,14.26551 H 278.26669 c 7.26965,0 13.16248,-6.38667 13.16248,-14.26551 0,-7.87883 -5.89283,-14.26549 -13.16248,-14.26549 z"
     id="path997"
     style="fill:#ffffff;fill-opacity:1;stroke:#ffffff;stroke-width:0.685145;stroke-opacity:1"
     sodipodi:nodetypes="sssssss" />
  <path
     d="m 89.385065,389.13665 c -7.269652,0 -13.162497,6.38667 -13.162497,14.2655 0,7.87884 5.892845,14.2655 13.162497,14.2655 H 304.59167 c 7.26963,0 13.16248,-6.38666 13.16248,-14.2655 0,-7.87883 -5.89285,-14.2655 -13.16248,-14.2655 z"
     id="path999"
     style="fill:#ffffff;fill-opacity:1;stroke:#ffffff;stroke-width:0.685145;stroke-opacity:1"
     sodipodi:nodetypes="sssssss" />
</svg>
