<?xml version="1.0" encoding="UTF-8" standalone="no"?>
<svg
   version="1.0"
   width="453.60574pt"
   height="583.43787pt"
   viewBox="0 0 453.60574 583.43787"
   preserveAspectRatio="xMidYMid meet"
   id="svg8"
   sodipodi:docname="page_sub_page_icon.svg"
   inkscape:version="1.1 (c68e22c387, 2021-05-23)"
   xmlns:inkscape="http://www.inkscape.org/namespaces/inkscape"
   xmlns:sodipodi="http://sodipodi.sourceforge.net/DTD/sodipodi-0.dtd"
   xmlns="http://www.w3.org/2000/svg"
   xmlns:svg="http://www.w3.org/2000/svg">
  <defs
     id="defs12" />
  <sodipodi:namedview
     id="namedview10"
     pagecolor="#bebebe"
     bordercolor="#999999"
     borderopacity="1"
     inkscape:pageshadow="0"
     inkscape:pageopacity="0"
     inkscape:pagecheckerboard="true"
     inkscape:document-units="pt"
     showgrid="false"
     inkscape:zoom="0.90440902"
     inkscape:cx="180.22819"
     inkscape:cy="409.65978"
     inkscape:window-width="2038"
     inkscape:window-height="1701"
     inkscape:window-x="1592"
     inkscape:window-y="182"
     inkscape:window-maximized="0"
     inkscape:current-layer="svg8"
     fit-margin-top="0"
     fit-margin-left="0"
     fit-margin-right="0"
     fit-margin-bottom="0" />
  <metadata
     id="metadata2">
Created by potrace 1.12, written by Peter Selinger 2001-2015
</metadata>
  <path
     d="m 46.305047,67.835216 c -19.1,4.6 -35.3,20.9 -39.7999996,39.700004 -1.3,5.6 -1.5,32.4 -1.5,214.9 0,229.8 -0.4,214.8 6.1999996,227.4 4.8,9 14.7,18.5 23.8,22.8 4.1,2 9.9,4.1 12.8,4.7 3.7,0.8 48.4,1.1 148.500003,1.1 157.3,0 149.3,0.3 161.9,-6.1 13,-6.6 24.7,-22 27.7,-36.7 1.6,-7.5 1.6,-418.9 0,-426.4 -3,-14.700004 -14.7,-30.100004 -27.7,-36.700004 -12.6,-6.4 -4.4,-6.1 -162.7,-6 -112.600003,0.1 -145.100003,0.3 -149.200003,1.3 z m 299.700003,22.7 c 7.9,3.7 12.5,8.1 16.2,15.700004 l 3.3,6.7 v 209.5 209.5 l -2.6,5.5 c -3.7,8 -8.1,12.5 -15.7,16.2 l -6.7,3.3 h -144.5 -144.500003 l -6.7,-3.3 c -7.6,-3.7 -12,-8.2 -15.7,-16.2 l -2.6,-5.5 v -209.5 -209.5 l 2.6,-5.5 c 4.6,-9.900004 11.8,-16.000004 21.5,-18.500004 3,-0.7 48,-1 147.100003,-1 l 142.8,0.1 z"
     id="path4"
     style="fill:#ffffff;fill-opacity:1;stroke:#ffffff;stroke-width:10;stroke-miterlimit:4;stroke-dasharray:none;stroke-opacity:1" />
  <path
     d="m 89.385065,165.29257 c -7.269652,0 -13.162497,6.38666 -13.162497,14.2655 0,7.87883 5.892845,14.2655 13.162497,14.2655 H 278.26669 c 7.26965,0 13.16248,-6.38667 13.16248,-14.2655 0,-7.87884 -5.89283,-14.2655 -13.16248,-14.2655 z"
     id="path880"
     style="fill:#ffffff;fill-opacity:1;stroke:#ffffff;stroke-width:0.685145;stroke-opacity:1"
     sodipodi:nodetypes="sssssss" />
  <path
     d="m 89.385065,222.38757 c -7.269652,0 -13.162497,6.38667 -13.162497,14.26551 0,7.87882 5.892845,14.26549 13.162497,14.26549 H 304.59167 c 7.26963,0 13.16248,-6.38667 13.16248,-14.26549 0,-7.87884 -5.89285,-14.26551 -13.16248,-14.26551 z"
     id="path852"
     style="fill:#ffffff;fill-opacity:1;stroke:#ffffff;stroke-width:0.685145;stroke-opacity:1"
     sodipodi:nodetypes="sssssss" />
  <path
     d="m 89.385065,279.41656 c -7.269652,0 -13.162497,6.38666 -13.162497,14.2655 0,7.87883 5.892845,14.26549 13.162497,14.26549 H 278.26669 c 7.26965,0 13.16248,-6.38666 13.16248,-14.26549 0,-7.87884 -5.89283,-14.2655 -13.16248,-14.2655 z"
     id="path993"
     style="fill:#ffffff;fill-opacity:1;stroke:#ffffff;stroke-width:0.685145;stroke-opacity:1"
     sodipodi:nodetypes="sssssss" />
  <path
     d="m 89.385065,336.51157 c -7.269652,0 -13.162497,6.38665 -13.162497,14.26549 0,7.87884 5.892845,14.2655 13.162497,14.2655 H 304.59167 c 7.26963,0 13.16248,-6.38666 13.16248,-14.2655 0,-7.87884 -5.89285,-14.26549 -13.16248,-14.26549 z"
     id="path995"
     style="fill:#ffffff;fill-opacity:1;stroke:#ffffff;stroke-width:0.685145;stroke-opacity:1"
     sodipodi:nodetypes="sssssss" />
  <path
     d="m 89.385065,393.54055 c -7.269652,0 -13.162497,6.38666 -13.162497,14.26549 0,7.87884 5.892845,14.26551 13.162497,14.26551 H 278.26669 c 7.26965,0 13.16248,-6.38667 13.16248,-14.26551 0,-7.87883 -5.89283,-14.26549 -13.16248,-14.26549 z"
     id="path997"
     style="fill:#ffffff;fill-opacity:1;stroke:#ffffff;stroke-width:0.685145;stroke-opacity:1"
     sodipodi:nodetypes="sssssss" />
  <path
     d="m 89.385065,450.63555 c -7.269652,0 -13.162497,6.38667 -13.162497,14.2655 0,7.87884 5.892845,14.2655 13.162497,14.2655 H 304.59167 c 7.26963,0 13.16248,-6.38666 13.16248,-14.2655 0,-7.87883 -5.89285,-14.2655 -13.16248,-14.2655 z"
     id="path999"
     style="fill:#ffffff;fill-opacity:1;stroke:#ffffff;stroke-width:0.685145;stroke-opacity:1"
     sodipodi:nodetypes="sssssss" />
  <path
     id="path830"
     style="fill:#ffffff;fill-opacity:1;stroke:#ffffff;stroke-width:9.99997;stroke-miterlimit:4;stroke-dasharray:none;stroke-opacity:1"
     d="m 347.4375,5.0306342 c -21.68906,-0.05781 -50.85713,-0.0206 -90.43213,0.0044 -112.6,0.1 -145.1002,0.300781 -149.2002,1.300781 -19.1,4.5999998 -35.299798,20.8987308 -39.799799,39.6987298 -0.621053,2.675303 -0.979699,11.350176 -1.196777,38.367188 H 88.00488 V 51.435424 l 2.6001,-5.500488 c 4.599997,-9.9 11.79951,-15.999511 21.49951,-18.499512 3,-0.699999 48.00108,-1.000488 147.10107,-1.000488 l 142.79883,0.09961 5.50049,2.500489 c 7.9,3.7 12.49971,8.100195 16.19971,15.700196 l 3.30029,6.700194 V 260.93591 470.43494 l -2.60009,5.50048 c -3.70001,8 -8.1002,12.49971 -15.7002,16.19971 l -6.7002,3.30029 h -31.83252 v 21.29004 c 41.15298,-0.42845 41.38815,-1.75272 49.53369,-5.89014 13.00001,-6.6 24.7002,-22.00019 27.7002,-36.70019 1.6,-7.5 1.6,-418.899905 0,-426.399905 -3,-14.7 -14.70019,-30.100196 -27.7002,-36.700196 -9.45,-4.7999998 -7.20087,-5.8309568 -72.26806,-6.0043948 z" />
</svg>
