<?xml version="1.0" encoding="UTF-8" standalone="no"?>
<svg
   version="1.0"
   width="392.10504pt"
   height="521.93896pt"
   viewBox="0 0 392.10504 521.93897"
   preserveAspectRatio="xMidYMid meet"
   id="svg12"
   sodipodi:docname="page_manager_icon.svg"
   inkscape:version="1.1 (c68e22c387, 2021-05-23)"
   xmlns:inkscape="http://www.inkscape.org/namespaces/inkscape"
   xmlns:sodipodi="http://sodipodi.sourceforge.net/DTD/sodipodi-0.dtd"
   xmlns="http://www.w3.org/2000/svg"
   xmlns:svg="http://www.w3.org/2000/svg">
  <defs
     id="defs16" />
  <sodipodi:namedview
     id="namedview14"
     pagecolor="#949494"
     bordercolor="#999999"
     borderopacity="1"
     inkscape:pageshadow="0"
     inkscape:pageopacity="0"
     inkscape:pagecheckerboard="true"
     inkscape:document-units="pt"
     showgrid="false"
     inkscape:zoom="1.2790275"
     inkscape:cx="-141.51377"
     inkscape:cy="623.91153"
     inkscape:window-width="3840"
     inkscape:window-height="2126"
     inkscape:window-x="-11"
     inkscape:window-y="-11"
     inkscape:window-maximized="1"
     inkscape:current-layer="svg12"
     fit-margin-top="0"
     fit-margin-left="0"
     fit-margin-right="0"
     fit-margin-bottom="0" />
  <metadata
     id="metadata2">
Created by potrace 1.12, written by Peter Selinger 2001-2015
</metadata>
  <path
     d="m 46.305047,6.3363176 c -19.1,4.6000004 -35.3,20.9000004 -39.7999996,39.7000004 -1.3,5.6 -1.5,32.4 -1.5,214.900002 0,229.8 -0.4,214.8 6.1999996,227.4 4.8,9 14.7,18.5 23.8,22.8 4.1,2 9.9,4.1 12.8,4.7 3.7,0.8 48.4,1.1 148.500003,1.1 157.3,0 149.3,0.3 161.9,-6.1 13,-6.6 24.7,-22 27.7,-36.7 1.6,-7.5 1.6,-418.900002 0,-426.400002 -3,-14.7 -14.7,-30.1 -27.7,-36.7 -12.6,-6.4000004 -4.4,-6.1000004 -162.7,-6.0000004 -112.600003,0.1 -145.100003,0.3 -149.200003,1.3 z M 346.00505,29.036318 c 7.9,3.7 12.5,8.1 16.2,15.7 l 3.3,6.7 v 209.500002 209.5 l -2.6,5.5 c -3.7,8 -8.1,12.5 -15.7,16.2 l -6.7,3.3 h -144.5 -144.500003 l -6.7,-3.3 c -7.6,-3.7 -12,-8.2 -15.7,-16.2 l -2.6,-5.5 v -209.5 -209.500002 l 2.6,-5.5 c 4.6,-9.9 11.8,-16 21.5,-18.5 3,-0.7 48,-1 147.100003,-1 l 142.8,0.1 z"
     id="path4"
     style="fill:#ffffff;fill-opacity:1;stroke:#ffffff;stroke-width:10;stroke-miterlimit:4;stroke-dasharray:none;stroke-opacity:1" />
  <g
     id="g1228"
     transform="matrix(5.8449985,0,0,5.8449985,102.54716,144.08413)">
    <path
       d="m 2,26.495 -2,9.5 9.5,-2 16.13,-16.13 -7.5,-7.5 z m 29.41,-14.41 c 0.78,-0.78 0.78,-2.05 0,-2.83 l -4.67,-4.67 c -0.78,-0.78 -2.05,-0.78 -2.83,0 l -3.66,3.66 7.5,7.5 z"
       id="path2"
       style="fill:#ffffff;fill-opacity:1"
       sodipodi:nodetypes="ccccccssssccs" />
  </g>
</svg>
