<?xml version="1.0" encoding="UTF-8" standalone="no"?>
<svg
   version="1.0"
   width="392.10504pt"
   height="521.93896pt"
   viewBox="0 0 392.10504 521.93897"
   preserveAspectRatio="xMidYMid meet"
   id="svg10"
   sodipodi:docname="page_heading_block_icon.svg"
   inkscape:version="1.1 (c68e22c387, 2021-05-23)"
   xmlns:inkscape="http://www.inkscape.org/namespaces/inkscape"
   xmlns:sodipodi="http://sodipodi.sourceforge.net/DTD/sodipodi-0.dtd"
   xmlns="http://www.w3.org/2000/svg"
   xmlns:svg="http://www.w3.org/2000/svg">
  <defs
     id="defs14" />
  <sodipodi:namedview
     id="namedview12"
     pagecolor="#ffffff"
     bordercolor="#999999"
     borderopacity="1"
     inkscape:pageshadow="0"
     inkscape:pageopacity="0"
     inkscape:pagecheckerboard="0"
     inkscape:document-units="pt"
     showgrid="false"
     inkscape:zoom="1.2790275"
     inkscape:cx="261.91775"
     inkscape:cy="347.92059"
     inkscape:window-width="3840"
     inkscape:window-height="2126"
     inkscape:window-x="-11"
     inkscape:window-y="-11"
     inkscape:window-maximized="1"
     inkscape:current-layer="svg10"
     fit-margin-top="0"
     fit-margin-left="0"
     fit-margin-right="0"
     fit-margin-bottom="0" />
  <metadata
     id="metadata2">
Created by potrace 1.12, written by Peter Selinger 2001-2015
</metadata>
  <g
     transform="matrix(0.1,0,0,-0.1,5.0050474,516.93632)"
     fill="#000000"
     stroke="none"
     id="g8"
     style="fill:#ffffff;fill-opacity:1;stroke:#ffffff;stroke-width:100;stroke-miterlimit:4;stroke-dasharray:none;stroke-opacity:1">
    <path
       d="M 413,5106 C 222,5060 60,4897 15,4709 2,4653 0,4385 0,2560 0,262 -4,412 62,286 110,196 209,101 300,58 341,38 399,17 428,11 465,3 912,0 1913,0 c 1573,0 1493,-3 1619,61 130,66 247,220 277,367 16,75 16,4189 0,4264 -30,147 -147,301 -277,367 -126,64 -44,61 -1627,60 -1126,-1 -1451,-3 -1492,-13 z m 2997,-227 c 79,-37 125,-81 162,-157 l 33,-67 V 2560 465 l -26,-55 c -37,-80 -81,-125 -157,-162 l -67,-33 H 1910 465 l -67,33 c -76,37 -120,82 -157,162 l -26,55 v 2095 2095 l 26,55 c 46,99 118,160 215,185 30,7 480,10 1471,10 l 1428,-1 z"
       id="path4"
       style="fill:#ffffff;fill-opacity:1;stroke:#ffffff;stroke-width:100;stroke-miterlimit:4;stroke-dasharray:none;stroke-opacity:1" />
    <path
       d="m 885,4471 c -90,-22 -172,-90 -215,-176 l -25,-50 v -510 -510 l 28,-57 c 30,-62 83,-115 149,-150 40,-20 61,-23 273,-29 297,-9 1333,-9 1630,0 212,6 233,9 273,29 66,35 119,88 149,150 l 28,57 v 510 510 l -34,63 c -38,70 -69,100 -145,140 l -51,27 -1015,2 c -558,0 -1028,-2 -1045,-6 z m 2030,-221 c 54,-29 55,-41 55,-514 0,-480 -1,-491 -59,-520 -27,-14 -139,-16 -1001,-16 -862,0 -974,2 -1001,16 -58,29 -59,40 -59,520 0,478 1,487 59,516 40,19 1969,18 2006,-2 z"
       id="path6"
       style="fill:#ffffff;fill-opacity:1;stroke:#ffffff;stroke-width:100;stroke-miterlimit:4;stroke-dasharray:none;stroke-opacity:1" />
  </g>
</svg>
