<?xml version="1.0" encoding="UTF-8" standalone="no"?>
<svg
   version="1.0"
   width="392.10504pt"
   height="521.93896pt"
   viewBox="0 0 392.10504 521.93897"
   preserveAspectRatio="xMidYMid meet"
   id="svg12"
   sodipodi:docname="page_type_icon.svg"
   inkscape:version="1.1 (c68e22c387, 2021-05-23)"
   xmlns:inkscape="http://www.inkscape.org/namespaces/inkscape"
   xmlns:sodipodi="http://sodipodi.sourceforge.net/DTD/sodipodi-0.dtd"
   xmlns="http://www.w3.org/2000/svg"
   xmlns:svg="http://www.w3.org/2000/svg">
  <defs
     id="defs16" />
  <sodipodi:namedview
     id="namedview14"
     pagecolor="#949494"
     bordercolor="#999999"
     borderopacity="1"
     inkscape:pageshadow="0"
     inkscape:pageopacity="0"
     inkscape:pagecheckerboard="true"
     inkscape:document-units="pt"
     showgrid="false"
     inkscape:zoom="1.2790275"
     inkscape:cx="-141.51377"
     inkscape:cy="623.91153"
     inkscape:window-width="3840"
     inkscape:window-height="2126"
     inkscape:window-x="-11"
     inkscape:window-y="-11"
     inkscape:window-maximized="1"
     inkscape:current-layer="svg12"
     fit-margin-top="0"
     fit-margin-left="0"
     fit-margin-right="0"
     fit-margin-bottom="0" />
  <metadata
     id="metadata2">
Created by potrace 1.12, written by Peter Selinger 2001-2015
</metadata>
  <path
     d="m 46.305047,6.3363176 c -19.1,4.6000004 -35.3,20.9000004 -39.7999996,39.7000004 -1.3,5.6 -1.5,32.4 -1.5,214.900002 0,229.8 -0.4,214.8 6.1999996,227.4 4.8,9 14.7,18.5 23.8,22.8 4.1,2 9.9,4.1 12.8,4.7 3.7,0.8 48.4,1.1 148.500003,1.1 157.3,0 149.3,0.3 161.9,-6.1 13,-6.6 24.7,-22 27.7,-36.7 1.6,-7.5 1.6,-418.900002 0,-426.400002 -3,-14.7 -14.7,-30.1 -27.7,-36.7 -12.6,-6.4000004 -4.4,-6.1000004 -162.7,-6.0000004 -112.600003,0.1 -145.100003,0.3 -149.200003,1.3 z M 346.00505,29.036318 c 7.9,3.7 12.5,8.1 16.2,15.7 l 3.3,6.7 v 209.500002 209.5 l -2.6,5.5 c -3.7,8 -8.1,12.5 -15.7,16.2 l -6.7,3.3 h -144.5 -144.500003 l -6.7,-3.3 c -7.6,-3.7 -12,-8.2 -15.7,-16.2 l -2.6,-5.5 v -209.5 -209.500002 l 2.6,-5.5 c 4.6,-9.9 11.8,-16 21.5,-18.5 3,-0.7 48,-1 147.100003,-1 l 142.8,0.1 z"
     id="path4"
     style="fill:#ffffff;fill-opacity:1;stroke:#ffffff;stroke-width:10;stroke-miterlimit:4;stroke-dasharray:none;stroke-opacity:1" />
  <g
     id="g829"
     transform="translate(5.1874362e-4,-2.9974968)">
    <path
       d="m 189.40328,157.30046 c -12.25969,1.23021 -22.10139,4.19968 -31.68857,9.58716 -15.18676,8.48422 -26.89499,23.20435 -30.45835,38.26385 -1.7817,7.46611 -1.86653,16.45939 -0.21211,19.8955 1.90894,3.90274 7.59338,4.36938 10.18107,0.806 0.76358,-1.01811 0.84841,-1.86653 0.89084,-8.35696 0.0424,-8.44181 0.59389,-10.94465 3.98759,-17.81687 7.12674,-14.38075 20.95603,-24.7315 38.6032,-28.9312 3.6058,-0.84841 5.98138,-1.10294 12.34455,-1.27263 11.49612,-0.33936 19.85307,0.80601 28.9312,3.98759 15.69581,5.4299 26.51318,15.86549 30.67046,29.60994 1.06052,3.4361 1.18779,4.49664 1.18779,10.60528 0.0424,5.98136 -0.0849,7.16916 -0.93326,9.96895 -1.73927,5.55717 -3.69064,8.73875 -8.14487,13.19297 -5.13295,5.17538 -8.52663,7.38127 -23.1195,15.01706 -13.40506,6.9995 -18.58044,10.26592 -23.28918,14.67771 -5.47232,5.09054 -8.61148,10.22349 -10.52044,17.13814 -0.84843,3.18158 -0.93326,4.28453 -0.93326,19.08949 -0.0424,14.33833 0.0424,15.82307 0.72116,17.09572 2.29074,4.19968 8.39938,3.98757 10.56285,-0.33937 0.67874,-1.31506 0.76358,-3.0119 0.76358,-15.90793 0,-15.52612 0.16969,-17.18054 2.29075,-21.33782 2.29073,-4.53905 6.82978,-8.95084 13.19295,-12.81116 1.65443,-1.01812 7.63581,-4.24211 13.36265,-7.21159 17.98656,-9.29023 24.3073,-13.8717 30.20384,-21.80446 7.72063,-10.35075 10.18106,-24.7315 6.70253,-39.1971 -5.47233,-22.73772 -26.30109,-39.02743 -55.14745,-43.14228 -4.4542,-0.63631 -16.96844,-1.14536 -20.15002,-0.80599 z"
       id="path965"
       style="fill:#ffffff;fill-opacity:1;stroke:#ffffff;stroke-width:14;stroke-miterlimit:4;stroke-dasharray:none;stroke-opacity:1" />
    <path
       d="m 188.4276,352.83281 c -5.30265,2.67252 -6.82981,9.88412 -3.0119,14.50802 1.90894,2.33316 4.28453,3.4361 7.38127,3.4361 9.37506,0 13.02328,-12.00517 5.26022,-17.39265 -2.46043,-1.69685 -6.87222,-1.95138 -9.62959,-0.55147 z"
       id="path967"
       style="fill:#ffffff;fill-opacity:1;stroke:#ffffff;stroke-width:14;stroke-miterlimit:4;stroke-dasharray:none;stroke-opacity:1" />
  </g>
</svg>
