<?xml version="1.0" encoding="UTF-8" standalone="no"?>
<svg
   width="34.98"
   height="34.98"
   viewBox="0 0 34.98 34.98"
   version="1.1"
   id="svg4"
   sodipodi:docname="view_icon.svg"
   inkscape:version="1.1 (c68e22c387, 2021-05-23)"
   xmlns:inkscape="http://www.inkscape.org/namespaces/inkscape"
   xmlns:sodipodi="http://sodipodi.sourceforge.net/DTD/sodipodi-0.dtd"
   xmlns="http://www.w3.org/2000/svg"
   xmlns:svg="http://www.w3.org/2000/svg"
   xmlns:rdf="http://www.w3.org/1999/02/22-rdf-syntax-ns#"
   xmlns:cc="http://creativecommons.org/ns#"
   xmlns:dc="http://purl.org/dc/elements/1.1/">
  <metadata
     id="metadata10">
    <rdf:RDF>
      <cc:Work
         rdf:about="">
        <dc:format>image/svg+xml</dc:format>
        <dc:type
           rdf:resource="http://purl.org/dc/dcmitype/StillImage" />
      </cc:Work>
    </rdf:RDF>
  </metadata>
  <defs
     id="defs8" />
  <sodipodi:namedview
     pagecolor="#ffffff"
     bordercolor="#666666"
     borderopacity="1"
     objecttolerance="10"
     gridtolerance="10"
     guidetolerance="10"
     inkscape:pageopacity="0"
     inkscape:pageshadow="2"
     inkscape:window-width="2349"
     inkscape:window-height="1280"
     id="namedview6"
     showgrid="false"
     inkscape:zoom="4.9166667"
     inkscape:cx="13.728813"
     inkscape:cy="17.898305"
     inkscape:window-x="0"
     inkscape:window-y="0"
     inkscape:window-maximized="0"
     inkscape:current-layer="svg4"
     inkscape:pagecheckerboard="0"
     fit-margin-top="0"
     fit-margin-left="0"
     fit-margin-right="0"
     fit-margin-bottom="0" />
  <path
     d="M 25,22 H 23.41 L 22.86,21.45 C 24.82,19.18 26,16.23 26,13 26,5.82 20.18,0 13,0 5.82,0 0,5.82 0,13 c 0,7.18 5.82,13 13,13 3.23,0 6.18,-1.18 8.45,-3.13 L 22,23.42 V 25 L 32,34.98 34.98,32 Z M 13,22 C 8.03,22 4,17.97 4,13 4,8.03 8.03,4 13,4 c 4.97,0 9,4.03 9,9 0,4.97 -4.03,9 -9,9 z"
     id="path2"
     style="fill:#656565;fill-opacity:1" />
</svg>
